<svg width="150" height="150" viewBox="0 0 150 150" fill="none" xmlns="http://www.w3.org/2000/svg">
<path d="M21.1622 0.0369155C22.9277 -0.0342486 25.0861 0.0193631 26.8855 0.0194585L107.994 0.0216535C114.785 0.0192686 121.576 0.00238282 128.366 0.0354846C129.197 -0.0760312 130.723 0.50349 130.791 1.52373C130.961 4.03746 130.884 7.13596 130.883 9.62117L130.885 140.209C130.885 142.794 130.899 145.426 130.867 148.012C130.863 148.322 130.738 148.795 130.565 149.055C130.16 149.665 129.764 149.81 129.096 149.961C127.374 150.031 125.341 149.985 123.598 149.984L42.5055 149.975C35.612 149.975 28.7067 149.981 21.8128 149.982C21.124 149.982 20.5152 149.988 19.927 149.596C19.6139 149.388 19.2051 148.811 19.1766 148.447C19.0894 147.335 19.1218 146.084 19.1232 144.963L19.1306 5.02174C19.1319 3.97756 18.9304 1.7439 19.5241 0.846241C19.8678 0.326724 20.5609 0.130593 21.1622 0.0369155ZM23.1403 145.864C31.6511 145.997 40.4694 145.888 49.0016 145.887L118.22 145.885L123.915 145.897C124.451 145.898 126.365 145.921 126.839 145.834L126.837 20.7188C126.837 15.5277 126.677 9.31696 126.887 4.1941C125.281 4.074 123.042 4.13391 121.395 4.13467L30.848 4.14173C28.6066 4.14192 25.9502 4.0782 23.7316 4.16548L23.2492 4.20373C23.2209 4.24084 23.1926 4.27795 23.1643 4.31506C23.1741 9.34234 23.1754 17.4078 23.1753 22.1566L23.1734 136.854C23.173 139.736 23.2398 143.008 23.1403 145.864Z" fill="#FCFCFC"/>
<path d="M57.0082 80.0718C58.6168 80.026 59.115 80.5841 59.5651 82.0379C59.1023 83.9858 56.4886 85.8317 55.1381 87.3256L55.144 96.0074C55.1507 102.086 55.7811 102.218 49.625 102.17C47.8963 102.158 46.1676 102.157 44.439 102.164L38.6316 102.177C37.4482 102.178 35.6424 102.24 34.5255 102.043C33.7257 101.62 33.2749 101.27 33.211 100.316C33.1285 99.0839 33.1618 97.8495 33.1625 96.6151L33.1583 84.893C33.1589 83.9267 33.1308 82.8039 33.2209 81.8547C33.4333 79.6187 36.9019 80.1395 38.5156 80.1386L50.3579 80.1376C51.3553 80.1386 52.5153 80.0995 53.4938 80.233C54.243 80.3351 54.6931 81.0229 55.0965 81.5914C55.6282 80.9332 56.1958 80.3456 57.0082 80.0718ZM37.2657 98.067C41.8317 97.9888 46.4465 98.1166 51.0119 98.0355C51.0064 95.9702 50.9394 93.5224 51.0107 91.4867C49.4462 92.9548 46.9605 96.5197 44.7983 95.4122C43.5267 94.3829 42.3378 93.0368 41.1691 91.8921C40.2894 91.0298 40.1416 89.845 40.9823 88.9091C42.7505 86.9383 44.6878 89.554 45.8792 90.7617L50.9729 85.5942L51.0524 84.3646C46.4729 84.3006 41.8316 84.417 37.2714 84.3369C37.2732 88.8662 37.3362 93.5482 37.2657 98.067Z" fill="#FCFCFC"/>
<path d="M35.9443 47.944L47.6851 47.947C49.5098 47.9454 51.6287 47.8653 53.4381 48.0486C54.2177 48.1276 54.6691 48.8171 55.0911 49.41C57.4397 46.3045 60.872 49.0414 58.6368 51.5866C57.7001 52.6532 56.1851 54.0247 55.1341 55.0944L55.1374 67.0529C55.1105 70.3323 53.2609 69.9067 50.7121 69.9012L45.8072 69.8957L39.1105 69.9008C37.9167 69.9033 36.7225 69.884 35.5304 69.8781C32.5724 69.8634 33.1623 67.0815 33.1612 64.8655L33.1584 53.3237C33.1595 52.1038 33.1079 50.8487 33.247 49.6378C33.4207 48.125 34.7284 47.995 35.9443 47.944ZM37.2742 65.7949C41.4404 65.5997 46.7608 65.739 51.0077 65.7518C51.0194 63.6255 50.9798 61.3805 51.0249 59.2705C49.3647 60.7946 46.9685 64.3952 44.6898 63.137C43.8653 62.4094 43.1042 61.6189 42.3215 60.8478C41.2562 59.7982 39.5237 58.2582 40.9787 56.7419C41.3815 56.3154 41.9417 56.073 42.5284 56.0712C43.7794 56.0748 44.9668 57.6772 45.8588 58.5782C47.5534 56.8561 49.2614 55.1472 50.9826 53.4517L51.0446 52.1123C49.7315 51.9654 47.4429 52.0361 46.0439 52.0374L37.2728 52.0473L37.2742 65.7949Z" fill="#FCFCFC"/>
<path d="M35.2305 112.139C38.4949 111.994 42.8975 112.131 46.2772 112.126L50.7398 112.122C52.8605 112.121 53.7844 111.712 55.0804 113.57C55.6163 112.919 56.1273 112.376 56.9935 112.225C57.5734 112.124 58.1695 112.263 58.6458 112.608C59.0496 112.907 59.3049 113.364 59.3464 113.864C59.5032 115.588 56.4164 117.846 55.1305 119.286L55.1368 130.465C55.171 133.059 54.9483 134.073 52.0802 134.053C51.2222 134.047 50.3078 134.056 49.4468 134.056H37.7571C36.2978 134.058 33.4575 134.435 33.2401 132.385C33.1022 131.085 33.1552 129.645 33.1553 128.329L33.1627 121.163C33.1679 118.837 33.141 116.505 33.1689 114.183C33.1841 112.924 34.0609 112.251 35.2305 112.139ZM37.2766 130.031C41.6076 129.874 46.6054 129.972 50.983 129.989C51.0257 127.813 50.9501 125.558 51.0165 123.415C49.4894 124.94 46.9721 128.533 44.7201 127.379C43.7085 126.453 37.1837 121.242 42.5495 120.202C43.4623 120.025 45.1228 121.981 45.8501 122.724L50.9991 117.59L51.04 116.214C47.9268 116.191 44.8133 116.185 41.6999 116.197C40.3703 116.198 38.5709 116.255 37.2768 116.187L37.2766 130.031Z" fill="#FCFCFC"/>
<path d="M57.3837 15.756C59.111 15.7851 60.2244 17.2991 59.2565 18.8745C58.6989 19.7822 57.6291 20.6187 56.8837 21.3996C56.315 21.9954 55.7067 22.5586 55.1327 23.1678L55.1437 31.758C55.1459 33.2144 55.2319 34.9503 55.0231 36.3938C54.9573 36.8486 54.4406 37.4871 54.0272 37.674C53.7286 37.8091 53.2664 37.8969 52.9216 37.9012C50.5418 37.9307 48.1575 37.8805 45.7771 37.8868C43.9357 37.8176 35.507 38.1106 34.3044 37.7292C33.5434 37.2201 33.2561 36.8987 33.2061 35.9775C33.1415 34.785 33.1619 33.5987 33.1609 32.4052L33.1612 20.9902C33.1623 19.1388 32.6374 16.2017 35.2177 16.085C36.425 16.0303 37.6222 16.0436 38.83 16.0431L50.2421 16.0454C51.2416 16.0441 52.3935 16.0046 53.3735 16.1363C54.222 16.2503 54.6337 16.8953 55.0878 17.5328C55.8208 16.6856 56.2731 16.0278 57.3837 15.756ZM37.2632 33.8721C41.8421 33.8398 46.4569 33.9065 51.0263 33.8431L51.018 27.3457C49.3092 28.8865 46.9721 32.4574 44.6497 31.1268C44.1314 30.6237 42.9472 29.3088 42.2243 28.7531C40.2493 27.2348 39.3362 24.537 42.6677 24.0774C43.5005 23.9626 45.1213 25.8226 45.8633 26.5881C47.5905 24.891 49.3046 23.1807 51.0056 21.4574L51.0305 20.1241C47.8735 20.0309 44.669 20.1318 41.5106 20.0975C40.2721 20.084 38.4818 20.1589 37.2973 20.0596C37.2112 24.6423 37.3612 29.3171 37.2632 33.8721Z" fill="#FCFCFC"/>
<path d="M64.4849 51.2662C67.2887 51.1384 70.881 51.2393 73.7334 51.2397L106.527 51.2377C109.124 51.2361 111.724 51.2184 114.32 51.25C115.512 51.2838 116.649 51.6833 116.759 53.0441C116.89 54.6692 115.943 55.2909 114.468 55.3821C104.048 55.4921 93.4469 55.3911 83.0102 55.3889L71.5318 55.3923C69.4145 55.3969 67.2696 55.4162 65.1532 55.3857C64.6298 55.346 63.8605 55.3 63.4229 55.0053C62.48 54.3703 62.3124 52.9945 62.959 52.0914C63.3433 51.5548 63.8645 51.3822 64.4849 51.2662Z" fill="#FCFCFC"/>
<path d="M65.282 115.386L98.4162 115.399L108.819 115.392C110.644 115.392 112.47 115.373 114.295 115.405C115.456 115.416 116.593 115.796 116.743 117.11C116.931 118.739 116.025 119.451 114.505 119.531L70.5595 119.536C68.6692 119.537 66.7915 119.552 64.891 119.516C63.7892 119.55 62.6453 118.912 62.5849 117.687C62.4918 115.794 63.8108 115.451 65.282 115.386Z" fill="#FCFCFC"/>
<path d="M64.4368 19.3249C67.2072 19.2062 70.6471 19.2969 73.4784 19.2967L106.164 19.2953C108.919 19.2935 111.616 19.2893 114.425 19.3142C116.355 19.3313 117.434 20.7565 116.382 22.5956C116.11 23.0716 115.354 23.2849 114.825 23.3647C112.289 23.4786 108.767 23.3822 106.186 23.3822L73.3218 23.385C70.5341 23.3873 67.7204 23.4051 64.9332 23.3727C64.4445 23.3671 63.8772 23.2894 63.461 23.0187C63.0199 22.7291 62.7101 22.278 62.5983 21.7624C62.3302 20.4789 63.1924 19.5183 64.4368 19.3249Z" fill="#FCFCFC"/>
<path d="M64.2587 83.5194C66.4205 83.3849 69.7143 83.4907 71.9578 83.4907L104.907 83.4936C108.094 83.4926 111.283 83.4783 114.47 83.5155C115.606 83.5289 116.553 83.9343 116.766 85.1649C116.86 85.7296 116.723 86.3087 116.386 86.7713C116.05 87.2292 115.671 87.4248 115.127 87.5192C114.316 87.6146 112.703 87.5765 111.81 87.5774L70.9414 87.5793C68.7532 87.5793 66.2903 87.6318 64.1003 87.4944C63.7376 87.4715 63.0994 87.0241 62.9004 86.6798C62.4454 85.8918 62.5725 85.3414 62.7624 84.5401C63.3175 83.9133 63.454 83.7225 64.2587 83.5194Z" fill="#FCFCFC"/>
<path d="M64.0918 30.5611C66.3699 30.4097 89.5713 30.3913 90.3558 30.6872C90.8721 30.882 91.2977 31.3651 91.4896 31.8736C91.6928 32.4104 91.6489 32.9685 91.3999 33.4821C91.1269 34.0436 90.6831 34.3309 90.1144 34.5412C89.1734 34.7056 87.2399 34.6489 86.2092 34.6496L69.79 34.6532C68.2841 34.6527 66.7798 34.6628 65.2714 34.6345C64.3692 34.6102 63.1874 34.5241 62.7862 33.525C62.2059 32.0799 62.7973 31.1207 64.0918 30.5611Z" fill="#FCFCFC"/>
<path d="M64.4967 94.6872C68.9724 94.5183 74.399 94.6614 78.9466 94.6586L85.6433 94.6576C86.8629 94.6576 89.9855 94.463 90.8024 95.1012C92.3007 96.2707 91.6718 98.5344 89.6324 98.77C88.1637 98.8435 86.3619 98.7948 84.855 98.7939L76.2542 98.7891L68.8955 98.7996C67.5442 98.8025 66.2047 98.8149 64.8499 98.7748C63.8299 98.7863 62.8087 98.3036 62.6291 97.2056C62.3898 95.7422 63.1005 94.9342 64.4967 94.6872Z" fill="#FCFCFC"/>
<path d="M64.0622 62.5205C65.9052 62.3833 89.5198 62.3084 90.3902 62.6448C90.8673 62.8289 91.2519 63.2446 91.4523 63.7086C91.6766 64.2293 91.6718 64.8208 91.4371 65.3373C91.1498 65.9742 90.687 66.2706 90.06 66.4945C88.7487 66.5835 87.1683 66.5484 85.8399 66.5497L79.0125 66.5539C74.4025 66.5556 69.8172 66.5623 65.1829 66.5368C63.4665 66.5273 62.18 65.8331 62.7103 63.7328C62.8547 63.161 63.5226 62.7337 64.0622 62.5205Z" fill="#FCFCFC"/>
<path d="M64.0641 126.724C66.0434 126.609 68.3591 126.67 70.373 126.67L86.5718 126.667C87.9833 126.667 90.497 126.318 91.3025 127.629C91.6117 128.124 91.6947 128.727 91.5306 129.287C91.3101 130.019 90.8368 130.346 90.1945 130.666C88.7134 130.773 86.9058 130.723 85.3951 130.722L77.5848 130.725C75.6221 130.726 64.9631 130.947 63.7913 130.579C63.3697 130.447 62.9687 130.023 62.7828 129.634C62.5178 129.079 62.5157 128.406 62.7479 127.84C62.9868 127.257 63.5128 126.961 64.0641 126.724Z" fill="#FCFCFC"/>
</svg>
