<svg width="150" height="150" viewBox="0 0 150 150" fill="none" xmlns="http://www.w3.org/2000/svg">
<path d="M7.83667 12.311L27.8082 12.3001L34.5672 12.2986C35.757 12.2988 37.3503 12.2539 38.501 12.3512C39.099 12.849 39.9722 13.7765 40.5496 14.3557L44.0311 17.8466L55.1569 28.9786C56.6957 28.8825 58.209 28.7071 59.7553 28.6556C65.3245 28.4703 70.1917 29.7189 74.9919 32.5122C79.9153 29.742 84.4358 28.4745 90.1516 28.6568C91.716 28.7067 93.2673 28.8725 94.8274 28.9926L105.111 18.6955C107.154 16.6524 109.427 14.2763 111.514 12.3242C115.104 12.2191 119.095 12.3022 122.708 12.3023L142.173 12.3103C142.093 17.032 142.162 21.9316 142.162 26.676L142.159 54.5528C142.16 59.6141 142.207 64.7358 142.153 69.7914C141.554 70.5185 140.139 71.8537 139.436 72.5563L133.75 78.2372C132.851 79.133 131.389 80.5033 130.59 81.4321C129.909 85.861 128.99 87.9199 126.297 91.4728C127.022 92.0353 127.646 92.7802 128.311 93.4115C131.962 96.8744 134.758 99.662 134.566 105.092C134.443 108.179 133.104 111.091 130.839 113.191L130.795 113.235C128.025 115.868 124.955 116.396 121.326 116.295C120.796 118.892 119.39 121.228 117.342 122.911C114.726 125.076 111.699 125.853 108.354 125.525C107.24 131.649 101.402 135.405 95.3569 134.827C94.7219 137.584 93.4424 139.804 91.2165 141.592C88.7439 143.573 85.5754 144.47 82.4319 144.08C79.1396 143.692 76.103 141.795 74.0749 139.215C71.8367 141.454 70.2769 143.044 67.0437 143.826C63.9836 144.574 60.7518 144.075 58.0596 142.439C55.1648 140.664 53.4816 138.078 52.7016 134.822C49.7597 135.167 46.794 134.412 44.3756 132.702C42.0553 131.041 40.2216 128.398 39.7422 125.563C38.1337 125.627 37.1245 125.67 35.5169 125.293C32.4613 124.58 29.8205 122.668 28.1885 119.988C26.2147 116.782 26.2112 113.651 27.0353 110.123C25.609 109.73 23.9213 108.667 22.843 107.67C20.5584 105.571 19.2126 102.644 19.1079 99.5434C18.9846 95.5971 20.1989 93.1091 22.8429 90.3141C20.7469 87.5998 19.89 84.7345 19.4177 81.413C15.626 77.5517 11.5608 73.6969 7.83835 69.7986L7.83667 12.311ZM55.4428 36.7967L31.5028 60.7294L24.4133 67.8224C23.3983 68.8394 21.6619 70.6872 20.6258 71.5662L24.7356 75.6547C25.504 76.4194 26.4121 77.2792 27.1242 78.0842C27.1812 80.5744 27.1629 82.6655 28.5927 84.873C31.1594 83.0661 34.349 82.3783 37.4322 82.9657C40.4971 83.5297 43.2121 85.2897 44.979 87.8569C45.634 88.8112 46.0442 89.7128 46.4477 90.788C49.3484 89.8234 52.511 90.0278 55.2631 91.3586C58.0503 92.7092 60.1881 95.11 61.2074 98.0346C61.8696 99.9843 61.9572 101.42 61.8075 103.44C64.8298 104.043 67.4868 105.826 69.19 108.394C70.9404 111.011 71.2061 113.377 71.0818 116.41C74.3591 117.191 76.9665 118.899 78.7419 121.815C80.3818 124.559 80.8491 127.849 80.0376 130.942C79.8259 131.775 79.5139 132.532 79.155 133.31C79.8508 134.014 80.5854 134.804 81.3325 135.445C82.8574 136.754 85.2751 136.616 86.6748 135.174C87.4453 134.381 87.854 133.306 87.8042 132.201C87.7258 130.587 86.8132 129.774 85.7754 128.714C84.6855 127.6 83.466 126.504 82.4319 125.347C83.6015 124.146 84.7815 122.955 85.9717 121.773C86.4243 121.32 87.498 120.195 87.9433 119.867C89.4023 121.228 90.7639 122.723 92.1943 124.099C93.0447 124.843 93.8979 126.027 94.9006 126.561C97.8633 128.14 101.049 125.858 100.769 122.568C100.62 120.816 98.9348 119.601 97.7256 118.396L92.4712 113.148C93.1948 112.308 94.3974 111.165 95.2068 110.359C96.0132 109.556 97.1455 108.352 97.9782 107.629C98.9502 108.603 99.9389 109.618 100.926 110.573L104.793 114.453C105.714 115.375 106.909 116.719 108.004 117.384C109.674 118.399 112.407 117.461 113.299 115.753C113.905 114.591 113.995 112.821 113.169 111.746C112.246 110.544 110.993 109.411 109.906 108.327L103.564 102.004C105.204 100.361 107.433 97.9892 109.115 96.4892L116.853 104.222C117.55 104.919 118.264 105.633 118.956 106.328C120.193 107.571 121.002 108.54 122.929 108.499C125.194 108.452 126.851 106.595 126.744 104.352C126.691 103.463 126.423 102.728 125.836 102.041C124.603 100.68 123.194 99.3317 121.893 98.0353L114.332 90.4826L89.3899 65.5368L84.4695 60.6234C83.8271 59.9812 82.3147 58.5411 81.8467 57.8667C80.8894 58.7262 79.7944 59.8829 78.8708 60.8057L73.5307 66.1542C71.9522 67.7375 70.1187 69.7611 68.2128 70.8488C66.2314 71.9679 63.9685 72.4895 61.6971 72.3508C58.7954 72.2005 55.862 70.8453 53.8733 68.7532C51.2604 66.0044 48.3 63.3808 45.7366 60.6051C50.0016 56.1788 54.6575 51.6624 59.017 47.3049L65.0861 41.2365C66.1235 40.1982 67.3285 38.9305 68.3892 37.9452C65.8522 36.8785 62.0547 36.1395 59.2836 36.5052L55.4428 36.7967ZM35.291 20.1475L21.4026 20.1335C20.4626 20.1336 16.3147 20.1847 15.7131 20.058C15.5743 22.6728 15.6769 26.2769 15.6769 28.9538L15.6773 45.7732L15.6786 58.9181C15.6787 60.7116 15.5787 63.8939 15.7105 65.5455C17.3814 63.6776 19.736 61.4467 21.5442 59.6396L31.9958 49.1917L42.5822 38.6065C44.2448 36.945 46.6669 34.6789 48.1579 32.9791C47.5169 32.4391 46.7302 31.6074 46.1141 30.9917L42.7618 27.6363C40.4031 25.2734 37.5375 22.5522 35.291 20.1475ZM34.7446 90.6247C32.4064 91.1344 31.3573 93.0512 29.6274 94.5871C28.8551 95.2726 27.9244 96.2731 27.311 97.1198C25.8011 100.084 28.3125 103.035 31.3184 102.937C32.7247 102.771 33.8521 101.722 34.7404 100.679C36.434 98.6908 39.5607 96.9162 39.1943 94.0026C39.0609 92.9391 38.4928 91.9782 37.6251 91.349C36.7738 90.736 35.7781 90.5258 34.7446 90.6247ZM38.4435 117.803C40.5885 117.495 41.1804 116.497 42.6217 115.055L46.3562 111.316L50.7304 106.931C51.5406 106.119 52.6812 105.118 53.3219 104.214C55.2559 101.485 53.2767 97.9745 49.9905 98.0258C47.9239 98.2177 47.3261 99.1677 45.9638 100.535L42.8385 103.663L37.9424 108.555C37.0248 109.473 36.094 110.377 35.2188 111.336C34.5002 112.124 34.2129 113.151 34.3072 114.224C34.3922 115.244 34.8778 116.19 35.6576 116.853C36.4621 117.525 37.4062 117.813 38.4435 117.803ZM134.316 20.117L120.948 20.133C119.064 20.1327 116.595 20.0564 114.751 20.1378C111.77 23.0333 108.871 26.0705 105.903 28.9741C104.813 30.0408 102.919 32.0917 101.825 33.0075C104.843 36.1011 107.96 39.1677 111.02 42.2271L127.904 59.1123C130.009 61.2157 132.259 63.4015 134.317 65.5335L134.328 36.4429C134.328 31.0438 134.394 25.5062 134.316 20.117ZM94.5835 36.8095C92.5158 36.6228 89.5371 36.3362 87.5339 36.5041C79.2004 37.2563 75.9104 41.4604 70.489 46.8877L61.5809 55.8004C60.0212 57.3599 58.359 59.0889 56.7725 60.5873C59.6622 63.5229 61.8849 66.6952 65.8574 62.7702L81.4167 47.1824C82.1147 47.6706 83.3474 49.0329 83.9743 49.679C86.0683 51.8372 88.6523 52.8062 91.6406 52.4087C94.0349 52.0902 94.727 51.2877 96.5442 50.023C98.3796 51.8114 100.208 53.7521 102.059 55.497C100.247 57.2803 97.1924 59.309 94.6472 59.7127C95.135 60.2334 95.633 60.7442 96.1413 61.2449L112.726 77.8278L117.831 82.9379C118.72 83.83 119.886 85.0722 120.8 85.8654C122.717 82.8471 122.858 81.6122 122.875 78.0864C123.579 77.2931 124.523 76.3967 125.283 75.6371L129.349 71.5806L106.402 48.642L98.584 40.8224C97.3095 39.5465 95.8022 38.1075 94.5835 36.8095ZM51.9947 127.002C53.3141 126.68 53.7774 126.182 54.7069 125.249C55.5846 124.367 56.4697 123.481 57.3479 122.599L60.3699 119.564C61.9935 117.933 63.8457 116.586 63.2415 113.995C62.9968 112.986 62.3629 112.116 61.4784 111.574C60.5373 111.001 59.7169 110.986 58.6749 111.057C58.2008 111.196 57.4317 111.429 57.0726 111.768C54.1309 114.538 51.32 117.468 48.4586 120.324C47.3428 121.438 46.9818 123.03 47.5207 124.515C47.885 125.492 48.62 126.286 49.5661 126.724C50.3412 127.081 51.164 127.127 51.9947 127.002ZM64.8607 136.296C66.603 135.938 67.8276 134.463 69.0227 133.195C70.6823 131.435 73.133 129.832 72.548 127.083C72.3291 126.069 71.7148 125.183 70.8413 124.623C69.9552 124.058 69.1416 123.963 68.1362 124.025C67.6475 124.117 66.8589 124.332 66.5169 124.641C65.316 125.726 61.7212 129.09 60.9227 130.263C60.33 131.144 60.1243 132.231 60.3535 133.268C60.5712 134.279 61.1851 135.161 62.0579 135.716C63.0049 136.32 63.8049 136.381 64.8607 136.296Z" fill="#9E9E9E"/>
</svg>
