<svg width="150" height="150" viewBox="0 0 150 150" fill="none" xmlns="http://www.w3.org/2000/svg">
<path d="M29.6936 13.1956C32.5094 13.1937 35.419 13.2397 38.2263 13.1807L38.2058 20.0818C40.7242 20.0186 43.362 20.0553 45.8878 20.055L57.7698 20.0672C57.6713 18.0298 57.7824 15.3422 57.7436 13.221C60.5094 13.133 63.5527 13.1972 66.3389 13.2012C66.2807 15.4582 66.3416 17.7848 66.2972 20.066L85.8341 20.0613L85.8288 13.2113C88.6297 13.1473 91.5619 13.2106 94.3835 13.1872C94.3904 15.479 94.3827 17.7708 94.3621 20.0625L113.961 20.0572C113.919 19.4867 113.964 18.6433 113.956 18.052C113.937 16.4488 113.986 14.8197 113.92 13.218C116.627 13.118 119.797 13.1933 122.538 13.1958L122.526 20.0953C125.432 19.9554 129.088 20.0562 132.077 20.056L149.989 20.0544L150 136.596C147.684 136.564 145.322 136.581 143.002 136.573L8.07465 136.586C6.12785 136.589 4.08098 136.627 2.14462 136.557C2.06636 134.265 2.17308 131.309 2.17444 128.939L2.17865 30.8469C2.17859 27.4 2.26958 23.5027 2.15495 20.0986C3.2881 20.0078 4.75508 20.0456 5.90527 20.0468L29.7317 20.0703C29.6756 19.4901 29.7113 18.2636 29.7111 17.6448C29.7131 16.1617 29.7072 14.6786 29.6936 13.1956ZM10.7605 128.059L141.284 128.057C141.419 127.862 141.386 127.216 141.388 126.939L141.387 61.3393C141.387 57.7241 141.444 53.9612 141.363 50.3626C138.113 50.4903 134.211 50.3881 130.917 50.3881L14.5939 50.3914C13.8141 50.3919 11.4816 50.4383 10.8048 50.3077C10.6873 56.9298 10.7741 63.7744 10.7746 70.4099L10.7761 120.684C10.7764 122.957 10.8609 125.829 10.7605 128.059ZM122.523 34.0937C119.697 34.1175 116.719 34.1595 113.903 34.0839C114.006 32.4812 113.955 30.2862 113.95 28.6561L100.797 28.6654C99.0912 28.6657 95.9583 28.766 94.3728 28.6584C94.3911 30.4131 94.4148 32.3873 94.3225 34.1324C91.919 34.0326 89.4698 34.1503 87.0618 34.1072C86.6673 34.1001 86.2148 34.0891 85.8257 34.1137C85.8356 32.3178 85.8105 30.4639 85.841 28.6762L72.6297 28.6634C70.8539 28.664 68.0252 28.7509 66.3268 28.6491C66.3325 30.4782 66.3253 32.3073 66.3053 34.1363C65.4845 34.0463 64.0597 34.0972 63.1948 34.1023C61.3756 34.1168 59.5564 34.1113 57.7373 34.0857C57.7869 32.3074 57.7572 30.4479 57.7539 28.6637L44.1028 28.6602C43.2344 28.6611 38.8478 28.7213 38.2709 28.6078C38.144 29.4957 38.2065 33.0293 38.2146 34.1088C35.8179 34.0837 33.4208 34.1207 31.024 34.1064C30.5888 34.1038 30.1523 34.0903 29.7189 34.134L29.7128 28.652L17.2859 28.663C15.5048 28.6621 12.4749 28.7523 10.7826 28.6418L10.7764 37.0552C10.7812 38.3574 10.8669 40.6229 10.751 41.8595L141.377 41.852L141.392 28.6472C137.19 28.7036 132.92 28.6635 128.713 28.662L124.962 28.6656C124.234 28.6666 123.237 28.7002 122.534 28.6057L122.523 34.0937Z" fill="#9E9E9E"/>
<path d="M43.6633 64.0957C53.4803 64.199 63.4816 64.0998 73.3138 64.1008L73.2896 96.4744L73.2956 105.761C73.2977 106.943 73.3787 109.337 73.2768 110.367L53.6988 110.346C50.493 110.347 46.8113 110.25 43.6711 110.375L43.6633 64.0957ZM52.1583 101.735C56.1882 101.858 60.7585 101.804 64.8097 101.76C64.7391 100.683 64.7775 99.2665 64.7776 98.1635L64.7767 72.878C63.8962 72.8239 62.9626 72.8269 62.0784 72.8391C58.7891 72.8841 55.4667 72.785 52.1804 72.8582L52.1924 90.4795C52.191 94.0757 52.2808 98.1902 52.1583 101.735Z" fill="#9E9E9E"/>
<path d="M81.1806 64.0955C84.1349 64.1404 87.2098 64.101 90.1702 64.1004L108.54 64.1058C108.495 64.9902 108.535 66.0867 108.532 66.9994L108.521 72.9634L108.51 103.652C108.511 105.458 108.42 108.645 108.568 110.374C99.4391 110.327 90.3099 110.327 81.1813 110.374L81.1989 101.767C81.8253 101.779 82.4777 101.77 83.1064 101.771L100.021 101.76C99.9717 100.709 100.009 99.3671 100.01 98.2954C100.022 96.0582 100.008 93.8219 99.9694 91.5847C97.9093 91.5161 95.5677 91.5664 93.4893 91.5664L81.1829 91.5634L81.1974 83.0134C81.7902 83.0637 82.7661 83.0309 83.3872 83.0309L87.341 83.0325L99.9557 83.0195C100.063 79.8768 100.04 76.0245 99.974 72.8658C95.6165 72.6882 91.0706 72.9504 86.6971 72.8513C84.9353 72.8117 82.9256 72.7911 81.1745 72.8772C81.2454 70.0623 81.2027 66.9239 81.1806 64.0955Z" fill="#9E9E9E"/>
</svg>
