<svg width="150" height="150" viewBox="0 0 150 150" fill="none" xmlns="http://www.w3.org/2000/svg">
<path d="M64.4013 11.926C66.5218 11.7916 71.1563 11.8463 73.3575 11.8794C77.359 11.9396 84.2469 11.5259 87.8886 12.5084C91.2349 13.3927 94.0897 15.5758 95.8199 18.5735C97.7666 21.961 98.2118 26.6892 97.2167 30.3791C105.317 33.3069 112.73 37.8654 118.997 43.7725C131.06 55.044 138.221 70.1924 139.43 86.5714C139.734 90.6895 139.535 94.3714 139.67 98.4037C143.931 100.887 146.391 105.059 146.455 109.978C146.514 115.653 147.098 120.742 142.885 125.178C138.905 129.367 133.237 129.821 127.792 130.913C113.633 133.822 99.2546 135.534 84.8088 136.031C68.1891 136.732 51.5406 135.819 35.0972 133.304C30.0217 132.504 24.9643 131.592 19.9289 130.569C16.7713 129.933 13.0441 129.339 10.1195 128.02C7.40384 126.794 4.77263 123.904 3.68879 121.151C2.64517 118.549 2.74325 115.676 2.70784 112.945C2.65459 108.836 2.8745 104.995 5.61361 101.701C6.84345 100.221 7.96912 99.3951 9.52538 98.2723C9.68061 94.6673 9.44228 90.9498 9.66841 87.3492C11.3042 61.3031 27.668 39.6592 51.8725 30.3626C51.8495 30.2373 51.8299 30.1115 51.8138 29.9852C51.2489 25.2434 51.3094 20.7498 54.4572 16.9317C57.0812 13.749 60.3739 12.3564 64.4013 11.926ZM128.503 123.341C131.688 122.713 136.279 122.206 138.128 119.48C138.539 118.872 138.824 118.188 138.967 117.468C139.29 115.817 139.25 110.43 138.976 108.61C138.725 106.94 137.576 105.582 136.191 104.671C135.211 104.026 133.516 103.977 132.293 103.971C123.931 103.933 115.539 103.952 107.179 103.952L58.0678 103.951L29.3433 103.947L20.5499 103.943C18.8388 103.943 16.4625 103.892 14.7939 104.057C8.51763 105.376 9.953 112.602 10.1272 117.323C10.1967 119.207 12.4428 121.326 14.1985 121.817C18.6951 123.075 23.3302 123.868 27.9208 124.704C56.0994 130.011 84.978 130.462 113.308 126.037C118.058 125.307 123.828 124.399 128.503 123.341ZM65.059 96.5712L84.0238 96.6179C84.0595 95.0256 84.4695 92.3315 84.6249 90.57L86.0829 74.8565C87.4639 60.8089 88.4876 46.6568 89.8547 32.5937C90.6695 24.214 91.8462 18.5372 80.6014 19.1838C76.0481 19.3633 70.0722 19.0765 65.2502 19.2508C60.9365 19.4272 58.5015 21.997 58.8493 26.3313C59.2962 31.902 59.8264 37.4693 60.3125 43.0376L63.5086 78.7755C63.7358 81.3232 63.9657 83.8877 64.1931 86.435C64.4633 89.4599 65.0912 93.635 65.059 96.5712ZM40.056 44.9898C39.8517 52.6159 40.2796 60.6242 39.8663 68.2534C39.718 70.9943 37.3956 71.6618 34.947 71.2849C34.125 70.6404 33.7305 70.3371 33.0703 69.4907C32.6931 67.7214 32.8052 64.1508 32.8056 62.2348L32.8207 51.4103C24.8347 59.9378 18.7675 71.2477 17.4843 82.9465C17.064 85.5153 16.8661 87.3098 16.8069 89.9429C16.764 91.8482 16.9512 94.8303 16.7056 96.6012L43.1417 96.5889C47.6335 96.5906 53.4285 96.415 57.7868 96.5968C57.2946 92.7927 57.0706 87.2933 56.7031 83.2689L54.0238 54.3361C53.8519 52.328 52.9486 39.107 52.424 38.0533L52.2925 37.9544C49.3001 39.0867 42.577 42.9363 40.056 44.9898ZM96.7155 37.8333C96.3293 40.5472 96.2051 42.8269 95.9586 45.52L94.9491 56.2699L92.7541 80.8581L91.8408 90.7362C91.6924 92.4198 91.5623 95.0102 91.2664 96.6327L132.405 96.6374C132.439 91.201 132.306 88.14 131.804 82.7732C131.256 80.0628 130.735 77.2951 129.957 74.6448C127.304 65.8856 122.617 57.8782 116.277 51.277C116.412 53.3785 116.352 55.561 116.364 57.6727C116.381 60.8114 116.379 63.9607 116.349 67.0995C116.344 67.6159 116.267 68.1671 116.192 68.678C115.829 71.3515 112.286 72.317 110.396 70.5649C109.343 69.589 109.148 68.6209 109.136 67.2248C109.088 61.6759 109.129 56.1237 109.127 50.5742C109.126 48.6487 109.111 46.7061 109.143 44.7819C107.627 44.0269 106.245 42.9135 104.843 42.0646C102.887 40.879 98.8007 38.5333 96.7155 37.8333Z" fill="#9E9E9E"/>
</svg>
