<svg width="150" height="150" viewBox="0 0 150 150" fill="none" xmlns="http://www.w3.org/2000/svg">
<path d="M74.485 3.44199C74.564 3.43728 74.643 3.43357 74.7219 3.43079C75.5521 3.39998 76.4024 3.57953 76.98 4.19775C77.9341 5.21918 78.8641 6.5374 79.7206 7.66054L85.005 14.5942L92.9099 24.9563C94.2434 26.7017 95.6628 28.4802 96.9158 30.2366C98.0487 31.8231 96.9901 34.3818 95.0116 34.6538C94.0165 34.7905 93.2313 34.7722 92.237 34.7694L89.3679 34.7575L89.3648 55.1306C89.3655 59.21 89.2718 63.6942 89.3748 67.7335C91.1877 66.8666 92.594 66.0442 94.5361 65.2032C102.747 61.6486 109.699 60.5972 118.513 60.5126C118.499 58.7349 118.397 56.6991 118.582 54.9508C118.753 53.3324 120.675 52.1485 122.207 52.6461C122.574 52.7652 122.894 52.875 123.21 53.1235C124.531 54.0899 125.831 55.0869 127.137 56.0744L134.733 61.8226L143.65 68.5625C145.265 69.782 146.883 70.9963 148.487 72.231C149.423 72.9524 149.89 73.5547 149.992 74.7858C150.053 75.5287 149.758 76.5574 149.19 77.0633C148.008 78.1151 146.686 79.0527 145.422 80.008L138.19 85.4889L128.481 92.845C126.925 94.0328 125.376 95.2306 123.816 96.4137C123.121 96.9404 122.316 97.376 121.42 97.3691C120.655 97.3668 119.923 97.0524 119.396 96.4979C119.03 96.1133 118.774 95.6384 118.655 95.1217C118.471 94.2884 118.558 90.559 118.564 89.4361C117.154 89.3635 114.839 89.3875 113.44 89.457C108.54 89.7249 103.826 91.4147 99.8747 94.3178C93.9414 98.6395 90.1624 105.3 89.5026 112.598C89.3532 114.139 89.3841 115.614 89.3834 117.157L89.3849 122.891L89.3857 139.748C89.3888 140.681 89.4647 143.654 89.2556 144.437C89.1278 144.903 88.8862 145.329 88.5517 145.678C87.4435 146.834 84.5659 146.539 83.0257 146.538L75.6373 146.532L67.7948 146.54C66.4132 146.541 64.9879 146.58 63.627 146.515C61.107 146.396 60.5318 144.697 60.5829 142.538C60.6194 140.996 60.6014 139.474 60.6004 137.977L60.5976 121.87C60.5979 117.953 60.8258 113.325 60.0349 109.536C59.0983 105.234 57.0663 101.245 54.1349 97.9545C49.8914 93.1902 44.0093 90.1883 37.6526 89.5427C35.4778 89.3365 33.5642 89.5303 31.5426 89.4052L31.4492 89.399C31.3898 92.0078 32.3735 96.969 28.8282 97.3706C27.1113 97.5652 25.0895 95.5766 23.7717 94.5687L17.823 90.0547L6.74954 81.6522C4.97256 80.3015 3.16784 78.9554 1.40319 77.5884C0.640075 76.9976 0.111751 76.2956 0.0120648 75.3194C-0.0607893 74.6058 0.19842 73.3609 0.732389 72.8798C1.64745 72.0546 2.88858 71.1654 3.88944 70.4075L10.5834 65.3334L22.165 56.5672C23.6546 55.441 25.1031 54.262 26.6179 53.1651C27.6914 52.3899 29.1625 52.2741 30.2532 53.0752C31.746 54.1717 31.4307 56.1753 31.4498 57.7858C31.4604 58.6818 31.4371 59.5918 31.4293 60.4853C40.5944 60.4906 48.8629 61.9824 57.1385 65.9729C58.252 66.5098 59.386 67.1786 60.5036 67.6597L60.5928 67.6972L60.594 46.1293C60.5945 42.6605 60.4648 38.1724 60.6371 34.7819C59.3691 34.7197 57.9353 34.7606 56.6467 34.7732C54.9533 34.8634 53.2103 34.4552 52.694 32.5917C52.1186 30.515 54.7771 27.906 56.0316 26.2655L62.2792 18.085L69.1556 9.07244C70.3336 7.52122 71.5375 5.87764 72.7798 4.37955C73.2146 3.85524 73.8371 3.60317 74.485 3.44199ZM7.76336 75.1711C8.64515 75.6523 11.1808 77.6695 12.0813 78.3553L20.9356 85.0719C22.0264 85.8983 24.3585 87.7633 25.4264 88.4283C25.4812 86.445 25.2508 84.0463 27.9739 83.6246C29.0971 83.4509 30.29 83.6053 31.4241 83.5536C33.1531 83.5814 35.0282 83.508 36.7355 83.5991C45.083 84.0587 52.9014 87.8212 58.4558 94.0529C63.2371 99.4048 65.9479 105.997 66.3615 113.125C66.517 115.805 66.4538 118.616 66.4542 121.314L66.4524 135.491L66.4521 140.722C68.2277 140.612 70.2672 140.687 72.0629 140.671C75.8433 140.638 79.6656 140.721 83.4431 140.662C83.3439 134.688 83.4825 128.621 83.426 122.638C83.3912 118.955 83.5329 115.298 83.1403 111.621C81.854 99.8257 76.438 88.8615 67.845 80.6575C65.7692 78.6549 63.5182 76.9034 61.1539 75.2569C60.2795 74.6475 59.4579 73.9517 58.5496 73.3957C51.4465 69.046 42.9447 66.725 34.6464 66.4317C33.0271 66.3745 28.094 66.6136 26.9423 66.0254C24.8927 64.9786 25.77 61.8654 25.3039 61.5687L15.6735 68.8784C13.6024 70.4545 11.5031 72.0245 9.44664 73.6204C8.90713 74.039 8.298 74.6931 7.76336 75.1711ZM124.396 61.5443C124.63 63.6718 124.27 66.2921 121.65 66.3799C118.698 66.479 115.846 66.3669 112.882 66.594C106.05 67.1538 99.4062 69.1038 93.3598 72.3237C92.5506 72.7562 91.6267 73.2497 90.8539 73.7385C90.3258 74.073 89.9866 74.551 89.3748 74.8615C89.3044 81.1479 89.3988 87.449 89.3686 93.7362C89.364 94.7047 89.3609 95.6955 89.3818 96.6632C92.8859 92.0418 96.6076 88.8561 101.908 86.3971C105.518 84.7707 109.399 83.8262 113.354 83.6115C114.95 83.532 116.82 83.5883 118.441 83.5798C119.559 83.5737 121.633 83.4601 122.593 83.8293C123.298 84.1081 123.86 84.6564 124.156 85.353C124.626 86.4821 124.313 88.0352 124.49 88.3379C125.051 88.2491 140.233 76.3952 142.082 75.1333C141.647 74.7441 141.003 74.0938 140.593 73.7633C139.34 72.7508 137.989 71.7548 136.701 70.7798L129.483 65.3141C128.697 64.7167 125 61.8208 124.396 61.5443ZM74.8497 11.2571C74.2999 12.1988 72.4308 14.5149 71.6702 15.5052L65.0065 24.2234C64.0245 25.5088 62.311 27.6114 61.4872 28.9214C63.9538 28.7297 66.32 28.8137 66.4556 32.0244C66.5125 33.3725 66.4747 34.7379 66.4733 36.0877L66.4672 43.792C66.4659 53.0082 66.3485 62.4936 66.4844 71.689C67.2301 72.2488 68.0666 72.8566 68.7629 73.4675C69.4073 74.0328 70.0137 74.7201 70.6566 75.3047C74.2372 78.5599 77.7877 82.5766 80.361 86.6968C81.5652 88.5256 82.3845 90.1188 83.4671 92.0024L83.4702 50.097L83.4671 37.6701C83.4655 35.5941 83.395 33.3338 83.5197 31.3385C83.6576 29.1442 86.2696 28.6185 88.0065 28.8526C88.1676 28.8743 88.1583 28.8739 88.2752 28.7863C88.0375 28.2811 75.1657 11.3901 74.8497 11.2571Z" fill="#9E9E9E"/>
</svg>
