<svg width="150" height="150" viewBox="0 0 150 150" fill="none" xmlns="http://www.w3.org/2000/svg">
<path d="M9.02661 11.9017C11.006 11.8343 13.3896 11.8976 15.4037 11.8969L43.7707 11.8873C45.6376 11.887 48.0429 11.7666 49.8059 12.3559C54.0307 13.7682 55.5837 17.9295 57.3831 21.6745C68.7754 21.5349 80.4199 21.6519 91.8277 21.6524L130.241 21.6614C133.142 21.6866 135.458 22.2994 137.546 24.4503C138.723 25.6569 139.531 27.1764 139.875 28.8291C140.196 30.3073 140.074 34.0676 140.075 35.7839L140.063 47.7013C142.889 47.7463 144.71 48.1164 146.912 50.0167C150.574 53.1788 149.962 57.5478 149.961 61.8645L149.965 126.456C149.967 127.553 150.015 128.99 149.88 130.048C149.656 131.955 148.844 133.744 147.556 135.164C145.724 137.166 143.555 137.959 140.917 138.074C138.342 138.191 134.935 138.087 132.296 138.087L14.5791 138.092C12.8428 138.093 9.98412 138.177 8.33087 138.037C6.4932 137.894 4.74603 137.178 3.33443 135.989C1.44927 134.407 0.280328 132.129 0.0927424 129.67C-0.048681 127.843 0.044914 124.854 0.0451878 122.955L0.0432985 26.0603C0.0431906 22.2424 -0.499372 18.139 2.25973 15.0484C4.18914 12.8872 6.18822 12.0874 9.02661 11.9017ZM9.34756 128.815C11.9166 128.736 14.7132 128.79 17.2961 128.791L132.271 128.79C135.026 128.79 137.914 128.744 140.656 128.818L140.669 57.0206L76.49 57.0334C74.5647 57.0349 72.6351 57.0352 70.7101 57.0357C68.0669 57.0365 65.8837 56.3557 63.9708 54.4752C63.3168 53.8334 62.7502 53.1078 62.2855 52.3171C61.478 50.9429 60.6478 49.1405 59.9285 47.6897L49.8578 27.3374C48.8846 25.3709 47.7332 23.1733 46.8254 21.1961C38.4258 21.3145 29.8187 21.2124 21.4033 21.2137L13.4205 21.2176C12.4507 21.2179 10.2167 21.2773 9.35843 21.1604C9.28508 24.3961 9.35146 27.7784 9.35219 31.0318L9.34896 103.251C9.34668 111.723 9.43531 120.353 9.34756 128.815ZM70.3055 47.7105L123.945 47.7146C125.983 47.7153 128.825 47.8081 130.804 47.7001C130.928 47.5327 130.865 32.4175 130.87 30.9768C126.516 30.9221 122.06 30.9714 117.698 30.9717L72.0658 30.9744C68.7731 30.9748 65.2821 30.9092 62.0108 30.9749C63.6009 34.3512 65.3779 37.788 67.0278 41.1545C67.9585 43.0535 69.2894 45.9654 70.3055 47.7105Z" fill="#9E9E9E"/>
<path d="M98.6595 110.791C99.399 110.699 102.18 110.761 103.006 110.763L123.7 110.766C125.219 110.766 128.279 110.675 129.64 110.802C130.424 110.884 131.174 111.17 131.813 111.634C132.809 112.357 133.476 113.449 133.668 114.668C133.87 115.892 133.572 117.147 132.841 118.147C131.981 119.31 130.948 119.802 129.563 120.018C127.905 120.141 125.249 120.053 123.481 120.052L103.153 120.058C101.023 120.058 98.0721 120.419 96.3289 119.106C95.3288 118.358 94.6775 117.231 94.5255 115.988C94.1885 113.329 96.0396 111.11 98.6595 110.791Z" fill="#9E9E9E"/>
</svg>
