<svg width="150" height="150" viewBox="0 0 150 150" fill="none" xmlns="http://www.w3.org/2000/svg">
<path d="M114.771 0.0668472C115.172 0.0403734 115.575 0.0251508 115.978 0.0211797L128.234 0.0140888C130.237 0.0137106 132.397 -0.0556881 134.396 0.117053C134.863 0.157426 135.48 0.490523 135.804 0.803765C136.254 1.23699 136.47 1.80703 136.52 2.40259C136.752 5.63192 136.744 8.91581 136.851 12.1439L138.402 63.2179C138.444 65.187 138.605 67.1362 138.609 69.1088C140.245 68.2682 145.809 65.0622 147.187 64.9863C147.876 64.9484 148.601 65.1858 149.114 65.6146C149.716 66.1159 149.916 66.8447 149.962 67.5716C150.046 68.865 149.965 70.2017 149.965 71.4998L149.97 141.907C149.97 143.958 150.094 146.145 149.772 148.166C149.525 149.71 147.901 149.992 146.489 149.995C143.18 150.003 139.865 149.996 136.553 149.994L9.48508 149.997C7.35694 149.999 5.23286 150.006 3.10524 149.987C1.84097 150.058 0.309213 149.339 0.166688 148.023C-0.100508 145.556 0.0320748 142.684 0.0386684 140.204L0.0364364 98.5774C0.0369436 97.4919 -0.17943 91.5372 0.553179 91.0739C3.50694 89.2047 6.96193 87.5538 10.1046 85.9285L30.3308 75.452C31.0851 75.058 31.8216 74.6476 32.5351 74.1925C32.969 73.931 33.4059 73.655 33.8572 73.4204C39.0072 70.7442 44.1587 68.0696 49.3231 65.418C49.7866 65.1801 50.3196 64.9913 50.8471 64.9674C52.0445 64.9131 53.2824 65.859 53.4112 66.9796C53.5866 68.4716 53.5032 69.9619 53.5148 71.4597C53.5228 72.5022 53.519 73.5521 53.51 74.5931C53.4702 79.2039 53.5749 83.8277 53.4822 88.4369C62.0056 83.8976 70.7725 79.5725 79.3168 75.0503C80.3951 74.5208 81.374 73.7805 82.4341 73.2318C87.4423 70.6254 92.4859 68.0082 97.5032 65.4237C99.2378 64.5305 101.506 65.1713 101.645 67.0506C101.816 69.3773 101.723 71.95 101.706 74.2957C101.671 79 101.795 83.7284 101.681 88.4265C103.691 87.4508 105.664 86.3569 107.664 85.3594C108.484 84.95 109.323 84.5113 110.096 84.03C110.074 79.6157 110.357 74.7747 110.483 70.3282L112.393 7.55023C112.438 5.76855 112.25 2.916 112.952 1.24436C113.205 0.639249 114.103 0.243749 114.771 0.0668472ZM48.07 71.6995C46.331 72.5719 44.5902 73.4138 42.9688 74.4677C42.5128 74.7639 42.0012 75.0338 41.5153 75.2859L9.23614 91.9996C8.25896 92.5063 6.25742 93.6107 5.29576 94.0012L5.28917 128.344C5.28927 133.871 5.36332 139.547 5.2779 145.054L35.3616 145.04C40.2729 145.04 46.0742 144.898 50.9153 145.047L50.9294 135.232C50.929 133.526 50.8797 131.806 50.9891 130.122C51.1467 127.695 52.9874 127.519 55.1178 127.556C56.1519 127.574 57.296 127.555 58.3386 127.556L67.8363 127.563C77.0638 127.571 86.301 127.556 95.5302 127.569C96.574 127.571 97.5529 127.628 98.338 128.381C98.7103 128.739 98.968 129.42 99.0015 129.912C99.1212 131.676 99.0999 133.649 99.0836 135.419C99.0552 138.61 99.1455 141.869 99.0593 145.046L133.377 145.042C137.12 145.04 140.95 145.004 144.687 145.041L144.704 101.267C144.705 91.454 144.83 81.3713 144.689 71.5765L112.698 88.3575L104.689 92.5149C103.21 93.2845 101.688 94.1411 100.154 94.7916C98.4121 95.53 96.5547 94.3576 96.5101 92.5801C96.4502 90.17 96.4817 87.7732 96.4827 85.366L96.4786 71.5607L64.408 88.4029L56.4076 92.5423C54.5211 93.5246 50.0882 96.676 48.5972 93.7298C47.9512 92.4524 48.4216 88.765 48.2883 87.3704C48.1393 85.8104 48.5183 72.162 48.1947 71.7179L48.07 71.6995ZM115.417 81.3085C117.815 80.0891 120.206 78.8571 122.589 77.6125C123.479 77.1514 124.929 76.3366 125.768 75.9742C128.334 74.6369 130.837 73.0149 133.382 71.8393C133.484 70.3187 133.288 67.0908 133.236 65.4246C133.146 61.5431 133.02 57.6624 132.857 53.7829C132.5 45.2731 132.406 36.6347 132.093 28.1095C131.94 23.9558 131.646 19.0612 131.697 14.9626C130.178 14.874 128.326 14.9159 126.776 14.9173L117.457 14.9293C117.321 15.5537 117.3 18.9826 117.278 19.9343L116.958 31.0321L115.417 81.3085ZM117.702 4.96828C117.69 6.65012 117.653 8.33168 117.593 10.0127L131.4 10.0056C131.615 9.71447 131.396 5.69073 131.413 4.97481C127.217 4.8778 121.921 4.89264 117.702 4.96828ZM77.6319 132.497C77.6349 136.501 77.7516 141.065 77.6167 145.023C82.6339 145.143 88.7579 145.109 93.7945 145.024L93.8006 132.498L77.6319 132.497ZM56.1986 132.492C56.179 135.231 56.1773 137.97 56.1934 140.709C56.1954 141.951 56.2544 143.828 56.1539 145.029C61.3495 145.07 67.1108 145.124 72.2965 145.02C72.5454 144.203 72.3524 133.996 72.3704 132.51C67.0298 132.441 61.4914 132.605 56.1986 132.492Z" fill="#FCFCFC"/>
<path d="M64.5228 100.102C71.0197 99.851 77.7942 100.248 84.3026 100.084C89.4011 99.954 88.2223 102.978 88.3765 106.405C88.411 107.15 88.3349 107.958 88.3623 108.706C88.1686 111.277 89.3524 114.434 85.734 115.011C78.63 115.152 71.3083 114.978 64.1911 114.966C62.9721 114.964 61.8535 114.079 61.7463 112.89C61.5332 110.53 61.6799 108.09 61.6362 105.717C61.7024 103.12 60.9473 100.505 64.5228 100.102ZM83.0793 110.058C83.0904 108.39 83.0935 106.722 83.0874 105.053C78.347 104.895 73.5015 105.119 68.751 105.034C68.146 105.023 67.5031 105.051 66.9037 105.015L66.8922 110.103L78.2273 110.099C78.8725 110.1 82.6319 110.137 83.0793 110.058Z" fill="#FCFCFC"/>
<path d="M16.3949 100.098C17.4879 100.043 18.9639 100.086 20.0875 100.086L27.077 100.083C30.3915 100.081 33.745 100.043 37.0248 100.113C40.5026 100.198 40.149 102.654 40.1372 105.065C40.0911 107.542 40.2203 110.036 40.0802 112.507C39.9862 114.166 39.0973 114.763 37.4565 115.013C30.6802 115.114 23.862 114.965 17.0818 115.025C15.6167 115.147 13.5921 114.615 13.5242 112.918C13.3811 109.349 13.2927 105.524 13.5783 101.96C13.6813 100.677 15.2313 100.218 16.3949 100.098ZM34.8236 110.122C34.8574 108.415 34.8642 106.708 34.8442 105.001C31.5701 105.038 28.2957 105.051 25.0214 105.04C22.9823 105.041 20.734 105.088 18.721 105.003C18.7065 106.71 18.7038 108.418 18.7128 110.127C23.2219 110.005 27.7857 110.145 32.2999 110.091C33.1381 110.08 33.9856 110.093 34.8236 110.122Z" fill="#FCFCFC"/>
<path d="M112.842 100.1C116.451 99.9625 120.489 100.155 124.149 100.082C127.228 100.091 130.283 100.056 133.363 100.109C134.549 100.038 136.357 100.709 136.448 102.026C136.679 105.429 136.562 109.046 136.512 112.465C136.489 114.117 135.546 114.758 133.92 115.017C127.338 115.127 120.705 114.941 114.117 115.036C110.558 115.086 109.777 114.35 109.879 111.013C109.938 108.167 109.753 105.288 109.926 102.448C110.028 100.774 111.298 100.261 112.842 100.1ZM131.266 110.064C131.293 108.385 131.297 106.706 131.278 105.027L120.725 105.043C119.338 105.042 116.44 105.109 115.166 104.981C115.134 106.698 115.134 108.416 115.165 110.133C119.032 109.954 123.279 110.176 127.176 110.093C127.785 110.081 130.855 110.152 131.266 110.064Z" fill="#FCFCFC"/>
</svg>
