<svg width="150" height="150" viewBox="0 0 150 150" fill="none" xmlns="http://www.w3.org/2000/svg">
<g clip-path="url(#clip0_217_784)">
<path d="M131.32 1.61277C133.708 1.4193 134.49 2.89126 134.42 5.00432C134.28 9.19609 134.251 13.3834 134.104 17.5767L143.468 17.7844C144.91 17.8223 146.377 17.8118 147.806 17.9832C149.02 18.1016 149.915 19.152 149.995 20.35C150.097 21.8728 148.517 23.0182 147.515 23.9764L143.751 27.5586L137.887 33.1464C137.217 33.7863 134.446 36.5944 133.708 36.8859C132.696 37.2861 130.09 37.7003 128.913 37.9415L118.285 40.1364C117.226 40.3486 115.555 40.5843 114.582 40.9789C114.162 41.149 113.127 42.3174 112.756 42.7168C113.275 43.2266 113.756 43.8832 114.241 44.437C122.86 54.2697 128.06 66.6257 129.555 79.5148C131.266 94.383 127.771 109.385 119.663 121.965C110.312 136.489 95.571 146.7 78.6875 150.346C61.7218 153.986 44.0055 150.704 29.4689 141.229C27.7297 140.094 26.0462 138.876 24.4244 137.579C10.9589 126.838 2.31898 111.181 0.410499 94.0629C-1.53182 76.8504 3.47074 59.5752 14.3094 46.0649C25.0653 32.6733 40.6868 24.0869 57.7566 22.1839C72.4215 20.5679 87.2012 23.9637 99.6909 31.8184C100.549 32.3673 101.371 33.0197 102.222 33.5609C104.726 35.1535 106.784 37.151 109.09 38.9925C109.487 38.637 110.657 37.5764 110.81 37.1441C111.186 36.0824 111.389 34.5014 111.604 33.3553L113.653 22.636C113.97 20.9592 114.324 18.6687 114.815 17.0839C114.991 16.5139 117.691 14.0959 118.302 13.5137L123.657 8.40587L127.696 4.55074C128.694 3.59522 130.031 2.08078 131.32 1.61277ZM109.099 46.3128C107.768 47.7045 106.377 49.0144 105.05 50.3857L98.6859 56.7595C97.8383 57.607 96.2213 59.3172 95.3362 60.0513C96.9242 62.1013 98.2375 63.6877 99.593 65.925C104.219 73.7063 106.132 82.8021 105.032 91.7868C104.023 100.136 100.409 107.954 94.7038 114.133C75.9944 134.494 42.5127 130.272 29.4484 105.984C20.2249 88.7154 24.5972 67.1304 40.0549 55.0298C54.2796 43.8943 74.1175 43.5414 88.7501 54.1207C89.748 54.8424 90.7224 55.6632 91.6851 56.4357L100.624 47.4815C102.015 46.089 104.016 43.9649 105.437 42.6971C104.186 41.6169 102.54 40.1628 101.23 39.1693C93.0054 32.8971 83.2817 28.8891 73.0265 27.5444C70.1255 27.1541 65.8656 26.8375 62.9417 26.9987C50.6859 27.3867 38.8533 31.5723 29.0793 38.977C23.8422 42.8913 19.0184 47.9181 15.3629 53.3486C9.59174 61.914 6.1468 71.8328 5.3661 82.1321C5.19689 84.2556 5.09358 86.149 5.16543 88.2818C5.47622 100.711 9.66883 112.731 17.1553 122.657C34.9367 146.434 67.5144 153.537 93.565 139.375C96.1767 137.926 98.6804 136.29 101.057 134.48C127.383 114.772 132.533 77.0853 112.913 50.9659C111.698 49.3482 110.349 47.8882 109.099 46.3128ZM97.98 74.3708C96.0711 69.7493 94.7985 67.6543 91.6639 63.7472C88.682 66.9178 85.3275 70.0124 82.2838 73.1498C80.7474 74.7332 79.4224 76.2783 77.8242 77.8069C86.0312 90.2065 75.5803 104.881 61.5589 102.177C53.0834 100.306 47.6804 91.8259 49.6563 83.3571C50.586 79.3731 53.3423 75.5652 56.6617 73.3831C61.7885 70.0132 68.7513 70.4241 73.7372 73.7556C74.2811 74.1196 75.3197 72.7958 75.7337 72.3796L78.639 69.4642L84.5707 63.535C85.6758 62.4297 86.968 61.1929 88.0058 60.0526C86.2636 58.8706 85.1327 57.7684 83.1658 56.5953C76.9954 52.9148 70.3289 51.3573 63.1971 51.6531C43.9699 52.5543 28.9124 69.0404 29.8298 88.274C30.2118 97.7987 34.452 106.758 41.5756 113.092C48.4777 119.266 57.5525 122.44 66.7978 121.914C76.082 121.484 84.811 117.368 91.0488 110.477C97.5886 103.223 100.724 94.1544 100.086 84.4583C99.8145 80.3311 99.1453 78.2577 97.98 74.3708ZM129.003 10.436C126.802 12.5682 124.587 14.6859 122.358 16.7889C121.579 17.5298 120.243 18.6004 119.666 19.4218C119.029 20.3271 117.122 32.8715 116.486 35.2169C119.887 34.5613 123.306 33.7835 126.699 33.1441C128.047 32.8672 130.009 32.5408 131.281 32.1277C131.689 31.9953 133.369 30.3031 133.801 29.8861L138.284 25.6132C138.95 24.9748 140.412 23.5039 141.115 22.9939L140.966 22.9768C137.763 22.6271 134.304 22.9606 131.071 22.5832C128.01 22.2258 129.11 17.9819 129.014 16.0105C128.976 15.2138 129.262 10.7749 129.003 10.436ZM64.2712 76.4614C61.3509 76.6837 58.8824 77.8445 56.9562 80.0822C55.1563 82.1634 54.2609 84.8771 54.4685 87.6204C55.1761 96.8008 66.2816 100.65 72.5147 94.0261C73.0195 93.4892 73.9595 92.4223 74.2976 91.8298C75.5968 89.5036 75.9294 86.7595 75.2234 84.1899C75.0497 83.5441 74.6083 82.1173 74.105 81.6962C73.5282 81.704 71.9332 83.4885 71.4621 83.9691C69.9849 85.475 68.4661 86.952 66.9976 88.465L66.775 88.6951C65.5396 87.6009 64.3087 86.2194 63.0956 85.0657C65.0491 82.7598 68.3341 80.09 70.2249 77.8061C68.1508 76.9185 66.6504 76.2227 64.2712 76.4614Z" fill="#9E9E9E"/>
</g>
<defs>
<clipPath id="clip0_217_784">
<rect width="150" height="150" fill="white"/>
</clipPath>
</defs>
</svg>
