<svg width="150" height="150" viewBox="0 0 150 150" fill="none" xmlns="http://www.w3.org/2000/svg">
<g clip-path="url(#clip0_213_609)">
<path d="M72.022 0.0556083C72.5335 0.0383686 73.045 0.0273455 73.5565 0.0223526C93.6349 -0.471661 113.052 7.24076 127.357 21.3918C141.515 35.3073 149.604 54.2857 149.855 74.1738C150.067 94.0595 142.428 113.22 128.608 127.47C117.963 138.488 104.197 145.95 89.1808 148.842C86.2085 149.41 82.9294 149.873 79.8989 149.995C77.5949 150.087 74.5438 148.899 72.8976 147.257C71.6391 145.992 70.7697 144.391 70.3931 142.643C69.9565 140.672 70.1172 135.903 70.1183 133.622L70.1051 117.779C65.7596 117.672 62.1319 115.467 60.5107 111.298C59.7411 109.319 59.8617 107.186 59.8614 105.096L59.8664 99.8512C49.2465 95.0392 42.6871 85.2352 42.7285 73.4458C42.7497 67.3982 42.7093 61.3259 42.7176 55.2768C42.7201 53.5132 42.6107 51.4938 43.0041 49.7779C43.3869 48.1264 44.2208 46.6149 45.4125 45.4132C48.6174 42.1702 52.0683 42.6428 56.233 42.6481C56.2842 37.9825 56.1928 33.3035 56.2311 28.6366C56.2385 27.736 56.2475 26.8988 56.4349 26.0139C56.8829 23.8971 58.9647 22.3378 61.0957 22.3631C62.376 22.37 63.6007 22.8894 64.498 23.8062C65.9256 25.2523 65.8788 26.8013 65.878 28.7172C65.8775 29.8574 65.8789 31.01 65.8781 32.1513L65.8673 42.6367C67.6119 42.7514 70.3831 42.6615 72.1872 42.6607L84.2123 42.6555C84.2677 38.4002 84.1842 34.1335 84.2161 29.8775C84.2311 27.8285 83.9439 25.4891 85.4765 23.8909C86.3953 22.9386 87.6529 22.39 88.9734 22.3647C90.277 22.3625 91.5271 22.8883 92.4393 23.8231C93.9268 25.3354 93.8471 27.0528 93.8489 29.0476C93.8499 30.1903 93.8499 31.3421 93.8499 32.4861L93.8273 42.6629C96.1098 42.6509 99.0999 42.4584 101.192 43.1897C103.51 44.0171 105.408 45.7317 106.469 47.959C106.926 48.9442 107.21 50.0018 107.305 51.0843C107.421 52.2834 107.374 53.9653 107.371 55.216L107.361 62.034L107.367 70.495C107.368 72.497 107.414 74.6979 107.217 76.6808C106.999 78.9254 106.506 81.1345 105.75 83.2579C102.939 91.1221 97.679 96.3572 90.2516 99.8644C90.215 102.538 90.2873 105.21 90.2122 107.886C90.1315 110.76 89.0719 113.203 86.9452 115.158C85.1105 116.844 82.5042 117.857 79.9947 117.736C79.8614 125.081 79.9374 132.984 79.9928 140.348C81.7581 140.125 83.3695 140.001 85.1668 139.724C89.6716 139.041 94.0892 137.866 98.3406 136.22C108.688 132.407 118.488 125.051 125.434 116.523C136.572 102.932 141.758 85.3963 139.815 67.907C137.927 50.7277 129.347 34.9949 115.948 24.1407C102.2 12.9276 85.2578 8.27193 67.7165 10.0988C50.6497 12.0158 35.0339 20.6394 24.2851 34.0835C13.0512 47.9967 8.46296 64.8167 10.3325 82.5362C12.3669 100.404 21.6212 116.65 35.9305 127.472C38.211 129.191 40.6026 130.753 43.0895 132.153C44.414 132.899 46.6579 133.848 47.7597 134.783C50.9624 137.497 49.2214 143.014 44.9217 143.213C42.9043 143.307 40.9994 142.053 39.2595 141.093C34.2846 138.372 29.6333 135.093 25.3947 131.318C7.73815 115.611 -1.356 92.3544 0.523643 68.8089C1.81165 52.5729 8.39455 37.2155 19.2538 25.1132C29.3449 13.7626 42.6237 5.74553 57.342 2.1172C62.4591 0.882355 66.794 0.363284 72.022 0.0556083ZM97.7494 52.3458L67.7436 52.3422C62.7524 52.3419 57.3293 52.2361 52.3743 52.3513L52.3533 66.6059C52.3536 69.8408 52.1438 75.1094 52.8387 78.0719C53.6128 81.3813 55.2712 84.4157 57.6356 86.849C59.466 88.718 63.2297 91.5225 65.9689 91.5178C71.1526 91.5093 76.3485 91.4943 81.5347 91.5112C82.8993 91.515 84.4413 91.6309 85.7552 91.2503C88.4046 90.3666 90.7753 88.5767 92.7002 86.5861C98.3087 80.1764 97.7775 75.3731 97.739 67.4923C97.7146 62.5204 97.6771 57.3222 97.7494 52.3458ZM69.4849 108.065C71.8259 108.151 74.3139 108.073 76.6658 108.099C77.3706 108.107 80.0022 108.136 80.5784 108.03C80.692 105.944 80.63 103.304 80.6056 101.193L73.2261 101.184C72.2473 101.185 70.4265 101.241 69.503 101.161C69.4316 102.855 69.4062 106.35 69.4849 108.065Z" fill="#9E9E9E"/>
</g>
<defs>
<clipPath id="clip0_213_609">
<rect width="150" height="150" fill="white"/>
</clipPath>
</defs>
</svg>
