<svg width="150" height="150" viewBox="0 0 150 150" fill="none" xmlns="http://www.w3.org/2000/svg">
<path d="M150 85.7467C147.169 92.2001 140.947 96.5111 133.911 96.8934C131.568 97.0348 127.597 96.413 125.659 97.6801C124.682 98.3143 123.986 99.2972 123.71 100.429C123.429 101.588 123.541 105.803 123.54 107.276L123.532 126.967L123.542 131.809C123.546 132.863 123.601 134.497 123.39 135.477C123.123 136.694 122.372 137.749 121.31 138.4C119.867 139.301 118.121 139.107 116.481 139.108L103.981 139.11C101.673 139.109 99.1787 139.234 96.9426 138.707C94.3813 138.1 92.0442 136.782 90.1992 134.905C89.0903 133.786 88.1777 132.488 87.501 131.065C86.6763 129.356 86.2808 127.679 86.1497 125.783C85.8896 122.014 86.8213 118.751 84.687 115.35C83.3496 113.228 81.2175 111.73 78.7668 111.193C76.2869 110.659 73.6963 111.122 71.5554 112.483C70.5013 113.161 69.5963 114.045 68.8956 115.085C66.1386 119.125 67.9586 123.45 66.9231 128.131C66.0933 131.798 63.8279 134.981 60.6336 136.966C58.9869 137.998 57.1404 138.669 55.2156 138.935C53.6241 139.172 51.7731 139.107 50.1381 139.105L37.4662 139.11C36.3512 139.112 34.4659 139.186 33.4383 138.943C31.918 138.593 30.6801 137.495 30.1533 136.026C29.696 134.733 29.8678 129.816 29.8679 128.125L29.8679 104.708C29.8679 103.298 30.0448 100.663 29.3782 99.454C28.1458 97.2186 26.1786 96.8114 23.8099 96.9118C22.6632 96.9601 21.127 96.941 19.932 96.9074C18.0727 96.8436 16.2325 96.5111 14.4684 95.9201C9.76582 94.286 5.88854 90.8773 3.6644 86.4235C1.44033 81.8751 1.12786 76.6266 2.79661 71.8467C5.32584 64.6577 11.9377 59.7011 19.5475 59.2894C21.4976 59.1874 24.2443 59.4843 26.0596 59.17C30.833 58.3435 29.8649 52.692 29.8634 49.1592L29.8728 31.8342L29.8676 26.2607C29.8598 22.7759 29.0817 18.1252 33.6273 17.198C34.7898 16.9609 36.5768 17.0696 37.7839 17.0701L44.0103 17.0754L50.1648 17.072C51.5046 17.0714 52.9504 17.0407 54.2764 17.1433C55.5193 17.2371 56.7445 17.4944 57.9201 17.9086C60.2169 18.7226 62.2605 20.1238 63.8479 21.9727C67.196 25.8198 67.4142 29.6571 67.2924 34.4644C67.242 36.457 67.3756 38.1903 68.265 40.0113C69.359 42.2332 71.2959 43.9254 73.6443 44.7112C76.0686 45.516 78.7119 45.3268 80.9963 44.1848C82.2627 43.55 83.3643 42.6302 84.2146 41.4979C87.6716 36.912 85.0137 32.1577 86.8477 26.7146C88.0408 23.15 90.6072 20.2086 93.9763 18.5423C95.4243 17.83 96.9836 17.3722 98.5862 17.1888C99.9492 17.0317 101.501 17.0699 102.888 17.0714L108.802 17.0789L115.182 17.0718C117.345 17.0679 120.163 16.7112 121.884 18.1951C123.501 19.5892 123.582 21.2101 123.543 23.204C123.516 24.6241 123.532 26.0994 123.533 27.5306L123.532 51.3843C123.531 52.5668 123.525 53.717 123.578 54.8944C123.624 57.1064 125.516 59.0945 127.738 59.2323C129.57 59.346 131.503 59.2015 133.364 59.2729C135.32 59.3348 137.257 59.6904 139.107 60.3278C144.116 62.0716 147.711 65.6282 150 70.331V85.7467ZM39.1554 129.798C42.5394 129.778 45.9234 129.775 49.3074 129.789C50.1865 129.789 51.0998 129.773 51.973 129.789C53.753 129.823 55.3568 129.783 56.6523 128.364C57.2425 127.717 57.7036 127.014 57.875 126.125C58.1214 124.156 57.9625 121.883 58.0077 119.872C58.1764 114.046 61.0549 108.631 65.791 105.233C68.8487 103.015 72.5057 101.773 76.2817 101.67C81.2725 101.584 86.0933 103.485 89.6814 106.955C93.4197 110.573 95.3474 115.297 95.4111 120.477C95.4375 122.586 95.0544 125.723 96.0886 127.558C97.6912 130.404 101.074 129.732 103.794 129.787C107.259 129.857 110.769 129.691 114.223 129.801C114.319 123.178 114.237 116.371 114.237 109.731L114.236 104.649C114.236 102.491 114.149 100.547 114.642 98.4205C115.244 95.8607 116.561 93.5236 118.436 91.6808C120.773 89.3832 123.832 87.9652 127.095 87.6671C132.123 87.2116 136.746 88.8661 140.5 83.8344C141.678 82.2553 142.329 80.3458 142.359 78.3756C142.427 74.6205 140.577 71.2518 137.178 69.5577C134.024 67.9853 130.544 68.8002 127.158 68.5215C123.847 68.2456 120.74 66.8042 118.391 64.4536C116.541 62.6189 115.242 60.3017 114.644 57.7656C114.131 55.5752 114.237 53.5584 114.237 51.3348L114.237 45.6675L114.255 26.3864L104.284 26.3869C102.625 26.3868 100.554 26.2801 98.9875 26.5407C97.4648 26.7942 95.8506 28.3422 95.5884 29.888C95.2419 31.9251 95.4661 34.4263 95.3826 36.5493C95.1343 42.4014 92.1643 47.8009 87.3545 51.1442C84.3018 53.2808 80.6785 54.4521 76.9526 54.5064C71.9268 54.5671 67.0891 52.5969 63.5355 49.0422C59.5962 45.1259 57.9859 40.4696 57.9948 35.0097L58.0025 32.3031C58.0053 30.3869 58.0097 29.1861 56.5835 27.7313C54.9543 26.0693 52.6001 26.3803 50.4629 26.3825L42.8023 26.392C42.0038 26.3931 39.8572 26.4538 39.166 26.3761C39.2517 32.4702 39.1746 38.7802 39.1753 44.8842L39.175 50.9625C39.1741 53.332 39.2813 55.5719 38.7278 57.896C38.1341 60.3166 36.9007 62.5331 35.1566 64.3135C32.5015 67.0405 28.8559 68.5769 25.0499 68.5729C20.7549 68.5981 17.1268 67.9802 13.7583 71.3281C11.8845 73.1904 11.037 75.6715 11.0539 78.2994C11.0621 80.7765 12.0477 83.1503 13.7963 84.9044C17.9697 89.0258 22.4231 86.9808 27.3444 87.8041C32.5845 88.6661 36.8976 92.3964 38.5075 97.4567C39.0083 99.0761 39.172 100.693 39.1747 102.379C39.1871 110.486 39.1724 118.593 39.1761 126.7C39.1765 127.732 39.1862 128.767 39.1554 129.798Z" fill="#9E9E9E"/>
<path d="M90.5383 61.624C91.8582 61.609 93.0396 61.9991 93.9968 62.9293C94.8845 63.7946 95.3884 64.9798 95.3958 66.2195C95.4009 66.7994 95.1497 68.1687 94.8142 68.5962C93.2754 70.5559 91.155 72.3632 89.4309 74.1876C88.7454 74.9127 88.2048 75.6085 87.5449 76.275L78.8723 84.9616L76.3748 87.4576C75.9441 87.8876 75.1736 88.6896 74.7041 89.0272C73.9197 89.5787 72.9852 89.8754 72.0267 89.8768C69.4682 89.8666 68.0431 87.8407 66.3672 86.1649L60.4993 80.296C59.2818 79.018 57.7529 77.7406 56.6621 76.382C55.2642 74.6395 55.3653 71.8125 56.8487 70.1751C57.6736 69.2645 58.8286 68.7219 60.056 68.6682C62.6188 68.559 63.5646 70.0907 65.2381 71.6537C67.6302 73.8881 69.6226 76.4567 72.0386 78.6517L83.5525 66.9078C85.0042 65.4529 86.5803 63.738 88.147 62.4435C88.7908 61.9115 89.7114 61.7016 90.5383 61.624Z" fill="#9E9E9E"/>
</svg>
