<svg width="150" height="150" viewBox="0 0 150 150" fill="none" xmlns="http://www.w3.org/2000/svg">
<path d="M74.4133 8.59377C75.2395 8.57773 75.6562 8.68935 76.3938 9.02502C78.2153 9.85391 80.0266 10.7248 81.8364 11.5786L132.268 35.31C133.843 36.045 135.456 36.8271 137.033 37.5471C139.909 38.8605 139.458 41.172 139.414 43.849C139.351 46.8972 139.202 49.9429 138.968 52.9827C137.253 75.8789 129.975 98.0559 115.578 116.179C106.969 127.015 95.7524 136.487 83.2061 142.453C81.134 143.438 77.313 145.018 75.0432 145.281C73.6128 145.338 71.5738 144.658 70.212 144.14C63.6031 141.628 57.1879 137.769 51.5568 133.528C28.5472 116.199 15.2579 90.1267 11.3735 61.9147C10.6613 56.7418 10.228 51.712 10.0511 46.4935C9.98267 44.5339 9.83333 42.5086 9.98992 40.553C10.0954 39.2354 10.9198 38.2435 12.088 37.6871C13.3438 37.0889 14.606 36.5065 15.8647 35.9146L64.3542 13.0961L69.5567 10.6413C70.6427 10.1262 73.3323 8.71814 74.4133 8.59377ZM17.0989 43.18C17.0615 47.4085 17.422 52.2237 17.8512 56.4386C20.2221 79.7219 28.7813 101.823 45.3767 118.719C52.2111 125.667 60.1684 131.411 68.9137 135.711C70.5893 136.515 73.0644 137.619 74.8498 138.163C76.2641 137.908 80.4807 135.871 81.8174 135.184C94.5732 128.627 105.565 118.754 113.73 107.002C124.715 91.1916 130.193 72.7574 131.782 53.7348C132.092 50.2128 132.261 46.6796 132.289 43.1441C131.432 42.8727 128.433 41.3827 127.463 40.9261L82.5146 19.7736C81.5632 19.3288 75.1245 16.1686 74.6836 16.1256C69.9318 18.2346 64.9667 20.6827 60.2388 22.9089L22.2633 40.773C20.6298 41.5436 18.7432 42.4875 17.0989 43.18Z" fill="#9E9E9E"/>
<path d="M96.0417 55.3903C97.01 55.3427 98.0149 55.6934 98.7253 56.3583C99.4094 57.0011 99.813 57.8869 99.8496 58.8247C99.8994 60.5193 98.7077 61.625 97.6845 62.7931C97.0649 63.5003 96.435 64.1984 95.8176 64.9075L78.8232 84.3442C77.1731 86.2339 75.5061 88.1733 73.8244 90.0359C73.0711 90.8386 72.156 91.3205 71.0349 91.3088C69.2067 91.2898 68.1575 89.8528 66.9755 88.6926C66.3674 88.0957 65.7807 87.4848 65.1816 86.885L56.9606 78.6636C55.5977 77.3232 53.3596 75.5654 53.1982 73.6955C53.1136 72.7006 53.446 71.7154 54.1161 70.9752C55.1576 69.834 57.2934 69.4023 58.568 70.3554C59.9166 71.3638 61.1406 72.7903 62.3587 73.9731C65.254 76.7842 68.0327 79.7644 70.9566 82.5432C72.1668 80.9538 74.2529 78.7112 75.6277 77.1401L90.7463 59.8623C91.5359 58.9596 92.3379 58.0459 93.1274 57.1443C94.0788 56.0565 94.5776 55.6347 96.0417 55.3903Z" fill="#9E9E9E"/>
</svg>
