<svg width="150" height="150" viewBox="0 0 150 150" fill="none" xmlns="http://www.w3.org/2000/svg">
<path d="M95.721 40.8239C92.4091 40.7971 89.0932 40.9258 85.7744 40.8744C82.2367 40.8196 80.0883 37.9173 82.5125 34.9209C84.449 32.5272 86.4868 30.206 88.5059 27.8767L99.1553 15.5682L106.73 6.76181C108.331 4.89468 109.994 2.82603 111.817 1.17219C112.174 0.754775 113.469 0.598873 114.017 0.729042C116.059 1.2148 119.011 5.22505 120.317 6.74109L128.008 15.6854L139.361 28.8535C140.873 30.6094 142.436 32.3354 143.935 34.0871C144.737 35.1037 145.476 36.2735 145.296 37.6236C145.12 38.9388 144.46 39.5561 143.481 40.3166C141.918 40.6588 132.892 40.6211 131.051 40.4555C131.235 44.6167 131.055 50.412 131.052 54.6628L131.041 82.8359L131.036 121.076C131.038 128.144 131.155 135.583 130.99 142.621C131.493 142.588 132.02 142.573 132.553 142.606C137.619 142.925 142.976 142.151 147.952 143.008C148.882 143.168 149.625 144.4 150 145.181V147.097C148.522 150.759 144.391 149.795 141.029 149.754C138.44 149.731 135.851 149.725 133.261 149.736L103.488 149.744L6.04161 149.835C4.52741 149.848 3.34492 149.735 2.20709 148.587C1.53225 147.914 1.1606 146.996 1.17782 146.042C1.18831 145.178 1.54526 144.353 2.16866 143.754C3.9457 142.054 8.73572 142.668 11.1996 142.664C15.8695 142.658 20.5736 142.615 25.2409 142.673C25.1041 132.098 25.2465 121.242 25.2411 110.642L25.2225 100.025C25.2182 97.8387 25.1365 95.0117 25.3949 92.8872C26.1368 91.8195 26.6856 91.0737 28.0445 90.927C30.4819 90.6639 32.9993 90.765 35.455 90.7666C39.7405 90.7535 44.0259 90.7704 48.3112 90.8168C48.2131 90.2462 48.2075 89.6123 48.2189 89.0315C48.3055 84.6412 48.2769 80.2535 48.2844 75.8634C48.2864 74.6514 48.5233 73.6622 49.4577 72.8222C50.0602 72.2717 50.8146 71.9155 51.6226 71.8001C53.045 71.5925 57.378 71.7462 59.1321 71.7708C62.9926 71.825 67.7151 71.5178 71.4941 71.7697C71.432 67.0308 71.4847 62.2671 71.471 57.5257C71.4638 55.0579 72.0644 52.8583 74.9333 52.7272C77.178 52.6245 79.4715 52.6815 81.7344 52.679C86.3859 52.6545 91.0373 52.6707 95.6885 52.7272C95.48 49.879 95.7084 43.9592 95.721 40.8239ZM92.359 33.9336C95.1872 33.8808 102.333 32.7861 102.472 36.8237C102.705 43.6272 102.606 50.4854 102.614 57.3004L102.626 96.2493L102.625 126.059C102.624 131.248 102.779 137.51 102.539 142.636C104.839 142.437 110.877 142.668 113.562 142.667C116.371 142.65 121.458 142.465 124.133 142.681C124.005 140.397 124.071 137.648 124.07 135.332L124.072 122.964L124.077 84.7833L124.072 53.2006C124.069 47.5655 123.98 41.8915 124.187 36.2669C124.25 34.5476 126.829 33.5878 128.301 33.6111C130.274 33.6426 132.284 33.5482 134.258 33.7244C132.331 31.3301 114.719 10.494 113.461 9.78141C113.449 9.77432 113.437 9.76685 113.424 9.75959C111.508 11.7931 109.489 14.3176 107.653 16.4665L98.4784 27.1061C97.1242 28.6808 93.7569 32.7741 92.359 33.9336ZM32.1941 97.6324C32.4437 107.035 32.2151 117.451 32.2183 126.941L32.2197 136.997C32.2192 138.371 32.2802 141.309 32.1125 142.569C37.2527 142.462 43.041 142.701 48.3083 142.666L48.3046 97.7016C44.9743 97.6673 41.6438 97.6623 38.3133 97.6866C36.3387 97.7007 34.1005 97.8671 32.1941 97.6324ZM55.2286 78.8612C55.491 81.5597 55.3259 86.8285 55.3249 89.7353L55.3124 110.395L55.3096 131.401C55.309 134.526 55.4645 139.738 55.1881 142.668C57.066 142.458 59 142.67 60.8746 142.633C64.1801 142.568 67.7013 142.705 70.9764 142.598L71.3239 142.578C71.6158 142.055 71.4771 125.706 71.4781 123.825L71.4967 78.9116C67.9422 78.9355 64.3873 78.9407 60.8325 78.9274C59.3125 78.9286 56.6116 79.0478 55.2286 78.8612ZM78.3834 59.7523L78.3578 114.326L78.3551 132.255C78.3538 135.622 78.4211 139.264 78.3039 142.602C82.5642 142.661 86.825 142.686 91.0858 142.677C91.8509 142.678 95.0815 142.729 95.617 142.588L95.7125 142.476L95.7135 86.8878L95.7034 68.9987C95.7015 66.7162 95.5666 61.9172 95.7761 59.8068C92.386 59.8935 88.7905 59.8014 85.3819 59.8273C83.7891 59.8393 79.8002 59.964 78.3834 59.7523Z" fill="#9E9E9E"/>
</svg>
