<svg width="150" height="150" viewBox="0 0 150 150" fill="none" xmlns="http://www.w3.org/2000/svg">
<path d="M72.4545 0.044046C113.862 -1.3621 148.565 31.0729 149.957 72.4806C151.349 113.889 118.902 148.58 77.4936 149.958C36.1055 151.334 1.43421 118.907 0.0431531 77.5197C-1.348 36.1321 31.0676 1.44956 72.4545 0.044046ZM76.7718 141.228C113.368 140.25 142.234 109.774 141.227 73.1786C140.219 36.5827 109.721 7.74112 73.1256 8.77727C36.5713 9.81226 7.76876 40.2693 8.77502 76.8242C9.78119 113.379 40.2156 142.206 76.7718 141.228Z" fill="#9E9E9E"/>
<path d="M49.6232 50.4156C49.9869 50.3822 50.3535 50.3952 50.714 50.4544C53.5032 50.9272 55.0878 53.7229 54.0411 56.3778C53.7125 57.1599 53.138 57.8268 52.5571 58.4341C48.4306 62.7484 45.6463 68.1387 44.5756 74.0566C43.0652 82.1978 44.8762 90.6056 49.6047 97.4028C54.2786 104.117 61.4231 108.704 69.4729 110.16C77.6272 111.635 86.0332 109.783 92.8133 105.018C99.4994 100.309 104.05 93.1438 105.47 85.0901C106.809 77.339 105.195 69.0346 100.741 62.5156C100.052 61.5002 99.3052 60.5255 98.503 59.5964C97.0379 57.9302 95.0372 56.1978 95.7309 53.8683C97.0352 49.4898 101.274 49.4439 103.992 52.6205C105.876 54.8215 107.045 56.2682 108.587 58.5931C111.475 63.3715 113.302 67.9924 114.156 73.5498C115.784 83.9944 113.199 94.6586 106.968 103.197C100.768 111.643 91.4719 117.286 81.1175 118.889C70.5797 120.516 59.8292 117.853 51.2695 111.495C42.8957 105.247 37.3343 95.9404 35.8001 85.6059C34.2344 75.1531 36.8886 64.5071 43.1781 56.013C44.7387 53.9188 46.9909 50.7984 49.6232 50.4156Z" fill="#9E9E9E"/>
<path d="M74.4377 23.589C76.2877 23.3562 78.7699 24.6913 79.0915 26.4514C79.5296 28.8516 79.3552 32.1644 79.3561 34.6397L79.3543 55.7394C79.3534 57.4034 79.3715 59.0611 79.3254 60.7247C79.255 63.2601 78.0129 64.5635 75.6626 65.2014C73.7115 65.2693 71.3322 64.4213 70.8799 62.235C70.4872 60.3369 70.6503 57.7999 70.6494 55.7995L70.6485 34.0291C70.649 31.9656 70.6205 29.9079 70.6957 27.8451C70.7839 25.4263 72.1711 24.1063 74.4377 23.589Z" fill="#9E9E9E"/>
</svg>
