<svg width="150" height="150" viewBox="0 0 150 150" fill="none" xmlns="http://www.w3.org/2000/svg">
<g clip-path="url(#clip0_208_590)">
<path d="M118.125 0H123.159C124.546 0.610179 126.32 0.655326 127.699 1.01954C129.68 1.5428 132.948 2.79762 134.756 3.73598L122.631 15.8514C121.608 16.8716 117.283 21.0242 116.717 22.0213C115.586 24.0113 117.472 29.3634 117.849 31.8583C120.983 32.3993 123.944 33.1 126.978 33.6617C133.097 27.5118 139.658 20.7519 145.908 14.7998C149.651 23.4612 150.901 30.3145 147.297 39.4759C144.331 47.0152 138.443 52.4054 131.116 55.6447C124.705 58.4789 118.189 57.0401 112.339 60.7789C108.154 63.4537 103.297 68.8418 99.653 72.5065L71.4573 100.71C67.1824 104.978 61.9717 109.288 59.6175 114.902C58.1347 118.437 58.1839 122.131 57.4188 125.831C55.435 135.186 49.0572 143.008 40.2929 146.836C33.9526 149.543 27.2442 149.946 20.6839 147.869C18.7485 147.255 16.7566 146.335 14.8875 145.817C19.1792 141.244 23.855 136.873 28.247 132.386C29.9777 130.618 32.1442 128.625 33.7453 126.806C33.4198 123.78 32.3764 120.581 32.1923 117.631C30.1298 117.128 24.4081 116.244 22.9528 115.64C21.7153 116.628 19.4186 119.059 18.232 120.25L9.10603 129.396C7.64918 130.858 5.36259 133.284 3.83711 134.566C2.77236 131.854 1.69118 129.649 1.0628 126.766C0.6494 124.869 0.572259 122.395 0 120.674V120.024C0.311625 119.029 0.609562 116.774 0.799134 115.664C1.16685 113.495 1.80135 111.38 2.68818 109.368C6.64961 100.179 14.6466 94.0033 24.391 92.0162C27.9696 91.4771 30.743 91.4832 34.1811 90.1463C39.8565 87.9398 43.2659 83.7265 47.5033 79.4855L77.4722 49.5195C80.8938 46.1032 86.1447 41.3314 88.6298 37.4196C92.7794 30.8873 90.8795 25.5107 94.1121 18.0272C97.3611 10.3713 103.694 4.44451 111.548 1.70914C113.405 1.05888 116.562 0.644187 118.02 0.044341L118.125 0ZM5.77361 126.046L15.496 116.291C17.1056 114.679 18.7935 112.61 20.6717 111.335C21.1329 111.022 21.5692 110.971 22.1153 110.969C23.8856 110.964 31.8895 112.56 33.7509 113.117C34.3559 113.298 35.169 113.572 35.6206 114.035C36.6482 115.087 38.7199 126.321 38.6011 127.896C38.5521 128.546 38.2091 129.003 37.8123 129.497C36.2807 131.404 34.264 133.128 32.5213 134.859C29.5241 137.838 26.5708 140.895 23.4691 143.763C26.5963 144.488 28.6074 144.379 31.788 144.305C44.2947 142.337 52.5955 132.912 53.405 120.323C53.6323 116.787 55.1585 112.665 56.9452 109.637C57.8175 108.174 58.8278 106.798 59.9624 105.527C62.895 102.294 66.8972 98.5024 70.0452 95.367L87.814 77.638L99.6063 65.8438C105.156 60.2959 110.799 54.1774 119.104 53.4066C127.756 52.6036 134.625 50.2709 139.999 42.8701C144.764 36.3069 144.979 31.0926 144.114 23.2708L134.268 33.1475C132.632 34.7886 130.891 36.8997 128.96 38.1672C128.533 38.4476 128.101 38.4907 127.6 38.4898C126.292 38.4877 117.729 36.7512 116.162 36.2665C115.472 36.0532 114.59 35.7202 114.07 35.1986C113.175 34.302 111.142 23.6445 111.177 21.9508C111.188 21.4458 111.231 20.9159 111.517 20.4833C112.731 18.6454 114.807 16.9646 116.378 15.4024C119.675 12.1255 123.003 8.86572 126.241 5.53189C123.336 5.0993 121.607 4.78251 118.662 5.03118C117.618 5.18341 116.491 5.32789 115.492 5.54914C105.582 7.7423 97.9472 16.3526 96.7463 26.407C96.5824 27.7805 96.4358 29.492 96.1742 30.8725C95.5917 33.9737 94.4852 36.9532 92.902 39.6826C91.9922 41.2129 90.9246 42.6436 89.7166 43.9515C86.7744 47.1791 82.8249 50.9101 79.6862 54.0369L50.3503 83.3325C47.6332 86.0509 44.8167 89.1183 41.7642 91.4086C38.234 94.0573 34.19 95.4524 29.863 96.1163C28.2965 96.3567 26.5285 96.4258 24.9905 96.74C18.9772 97.9443 13.6213 101.329 9.9526 106.243C6.65082 110.676 5.00038 116.122 5.28624 121.642C5.35249 123.144 5.59932 124.562 5.77361 126.046Z" fill="#FCFCFC"/>
<path d="M91.9554 54.9665C92.4168 54.9922 93.0261 55.0804 93.4979 55.1349C94.8054 56.5732 95.3051 57.6233 93.7513 59.2282C91.8857 61.1552 89.9556 63.0329 88.0539 64.9248L77.725 75.2413L66.3728 86.5525C64.9762 87.9523 59.4709 93.8003 58.044 94.4366C56.8438 94.3871 55.6465 94.0197 55.1656 92.7436C55.0241 92.3678 55.0408 91.55 55.294 91.2252C57.4529 88.4576 60.2278 85.9443 62.7286 83.4503L78.3715 67.8747L86.1706 60.0771C87.3664 58.8764 90.4601 55.3581 91.9554 54.9665Z" fill="#FCFCFC"/>
<path d="M100.897 46.0913C101.826 46.0418 102.699 46.5366 103.133 47.3592C103.567 48.1815 103.484 49.1814 102.919 49.9204C102.494 50.4774 101.845 50.819 101.145 50.8544C99.8307 50.9211 98.711 49.9108 98.6426 48.5967C98.5741 47.2825 99.5831 46.1615 100.897 46.0913Z" fill="#FCFCFC"/>
<path d="M47.8649 98.6282C49.0764 98.1623 50.4374 98.7558 50.9205 99.9604C51.4036 101.165 50.8298 102.534 49.6323 103.035C48.8421 103.365 47.9354 103.244 47.2595 102.718C46.5835 102.193 46.2431 101.344 46.3685 100.496C46.4938 99.6493 47.0656 98.9355 47.8649 98.6282Z" fill="#FCFCFC"/>
</g>
<defs>
<clipPath id="clip0_208_590">
<rect width="150" height="150" fill="white"/>
</clipPath>
</defs>
</svg>
