<svg width="168" height="35" viewBox="0 0 168 35" fill="none" xmlns="http://www.w3.org/2000/svg">
<path d="M23.8583 20.4167C23.975 19.4542 24.0625 18.4917 24.0625 17.5C24.0625 16.5084 23.975 15.5459 23.8583 14.5834H28.7875C29.0208 15.5167 29.1667 16.4938 29.1667 17.5C29.1667 18.5063 29.0208 19.4834 28.7875 20.4167M21.2771 28.525C22.1521 26.9063 22.8229 25.1563 23.2896 23.3334H27.5917C26.1788 25.7663 23.9372 27.6092 21.2771 28.525ZM20.9125 20.4167H14.0875C13.9417 19.4542 13.8542 18.4917 13.8542 17.5C13.8542 16.5084 13.9417 15.5313 14.0875 14.5834H20.9125C21.0437 15.5313 21.1458 16.5084 21.1458 17.5C21.1458 18.4917 21.0437 19.4542 20.9125 20.4167ZM17.5 29.1084C16.2896 27.3584 15.3125 25.4188 14.7146 23.3334H20.2854C19.6875 25.4188 18.7104 27.3584 17.5 29.1084ZM11.6667 11.6667H7.40833C8.80635 9.22694 11.0464 7.381 13.7083 6.47502C12.8333 8.09377 12.1771 9.84377 11.6667 11.6667ZM7.40833 23.3334H11.6667C12.1771 25.1563 12.8333 26.9063 13.7083 28.525C11.0516 27.6096 8.81459 25.7661 7.40833 23.3334ZM6.2125 20.4167C5.97916 19.4834 5.83333 18.5063 5.83333 17.5C5.83333 16.4938 5.97916 15.5167 6.2125 14.5834H11.1417C11.025 15.5459 10.9375 16.5084 10.9375 17.5C10.9375 18.4917 11.025 19.4542 11.1417 20.4167M17.5 5.8771C18.7104 7.6271 19.6875 9.58127 20.2854 11.6667H14.7146C15.3125 9.58127 16.2896 7.6271 17.5 5.8771ZM27.5917 11.6667H23.2896C22.8325 9.8607 22.1566 8.11726 21.2771 6.47502C23.9604 7.39377 26.1917 9.24585 27.5917 11.6667ZM17.5 2.91669C9.43541 2.91669 2.91666 9.47919 2.91666 17.5C2.91666 21.3678 4.45312 25.0771 7.18802 27.812C8.54221 29.1662 10.1499 30.2404 11.9192 30.9733C13.6885 31.7061 15.5849 32.0834 17.5 32.0834C21.3677 32.0834 25.0771 30.5469 27.812 27.812C30.5469 25.0771 32.0833 21.3678 32.0833 17.5C32.0833 15.5849 31.7061 13.6886 30.9732 11.9192C30.2404 10.1499 29.1662 8.54223 27.812 7.18805C26.4578 5.83386 24.8501 4.75966 23.0808 4.02678C21.3115 3.2939 19.4151 2.91669 17.5 2.91669Z" fill="#343434"/>
<path d="M47.028 26V7.8H58.078V9.308H48.848V16.094H57.298V17.602H48.848V24.492H58.078V26H47.028ZM61.4456 26V12.896H63.1096L63.2136 15.236C63.6296 14.404 64.2276 13.754 65.0076 13.286C65.8049 12.818 66.6889 12.584 67.6596 12.584C68.6649 12.584 69.5403 12.7833 70.2856 13.182C71.0309 13.5807 71.6116 14.1873 72.0276 15.002C72.4436 15.7993 72.6516 16.822 72.6516 18.07V26H70.8316V18.278C70.8316 16.8913 70.5283 15.86 69.9216 15.184C69.3149 14.508 68.4483 14.17 67.3216 14.17C66.5589 14.17 65.8656 14.3607 65.2416 14.742C64.6349 15.106 64.1496 15.6433 63.7856 16.354C63.4389 17.0647 63.2656 17.94 63.2656 18.98V26H61.4456ZM81.166 32.032C80.0047 32.032 78.9733 31.876 78.072 31.564C77.188 31.252 76.486 30.784 75.966 30.16C75.4633 29.536 75.212 28.7647 75.212 27.846C75.212 27.482 75.2727 27.0833 75.394 26.65C75.5327 26.234 75.7927 25.8093 76.174 25.376C76.5553 24.9427 77.0927 24.5527 77.786 24.206L79.268 24.856C78.3493 25.2893 77.7513 25.7573 77.474 26.26C77.1967 26.78 77.058 27.248 77.058 27.664C77.058 28.288 77.2313 28.808 77.578 29.224C77.942 29.64 78.4273 29.952 79.034 30.16C79.658 30.3853 80.3687 30.498 81.166 30.498C81.9633 30.498 82.648 30.3767 83.22 30.134C83.8093 29.9087 84.26 29.5793 84.572 29.146C84.884 28.73 85.04 28.2447 85.04 27.69C85.04 27.0487 84.7887 26.5027 84.286 26.052C83.8007 25.6187 82.8907 25.3673 81.556 25.298C80.4987 25.2287 79.6233 25.142 78.93 25.038C78.254 24.9167 77.6907 24.778 77.24 24.622C76.8067 24.4487 76.4427 24.2667 76.148 24.076C75.8707 23.8853 75.602 23.6773 75.342 23.452V22.854L77.838 20.488L79.502 21.086L77.058 23.27L77.214 22.568C77.4047 22.7067 77.5867 22.8367 77.76 22.958C77.9507 23.0793 78.1933 23.1833 78.488 23.27C78.8 23.3393 79.2247 23.4173 79.762 23.504C80.3167 23.5733 81.062 23.6427 81.998 23.712C83.194 23.7987 84.1473 24.0067 84.858 24.336C85.5687 24.6653 86.0887 25.1073 86.418 25.662C86.7473 26.2167 86.912 26.8667 86.912 27.612C86.912 28.3573 86.704 29.068 86.288 29.744C85.8893 30.42 85.2653 30.966 84.416 31.382C83.584 31.8153 82.5007 32.032 81.166 32.032ZM81.14 21.84C80.0307 21.84 79.0947 21.632 78.332 21.216C77.5867 20.8 77.0147 20.2453 76.616 19.552C76.2173 18.8413 76.018 18.0613 76.018 17.212C76.018 16.3453 76.2173 15.5653 76.616 14.872C77.0147 14.1787 77.5953 13.624 78.358 13.208C79.1207 12.792 80.048 12.584 81.14 12.584C82.2493 12.584 83.1767 12.792 83.922 13.208C84.6847 13.624 85.2567 14.1787 85.638 14.872C86.0367 15.5653 86.236 16.3453 86.236 17.212C86.236 18.0613 86.0367 18.8413 85.638 19.552C85.2567 20.2453 84.6847 20.8 83.922 21.216C83.1767 21.632 82.2493 21.84 81.14 21.84ZM81.14 20.28C82.1453 20.28 82.934 20.02 83.506 19.5C84.0953 18.9627 84.39 18.2 84.39 17.212C84.39 16.2067 84.0953 15.444 83.506 14.924C82.934 14.404 82.1453 14.144 81.14 14.144C80.1347 14.144 79.3287 14.404 78.722 14.924C78.1327 15.444 77.838 16.2067 77.838 17.212C77.838 18.2 78.1327 18.9627 78.722 19.5C79.3113 20.02 80.1173 20.28 81.14 20.28ZM83.272 14.534L82.622 12.896H87.926V14.378L83.272 14.534ZM90.4417 26V7.28H92.2617V26H90.4417ZM96.2115 26V12.896H98.0055V26H96.2115ZM97.1215 9.802C96.7575 9.802 96.4455 9.68067 96.1855 9.438C95.9255 9.178 95.7955 8.85733 95.7955 8.476C95.7955 8.07733 95.9168 7.76533 96.1595 7.54C96.4195 7.29733 96.7315 7.176 97.0955 7.176C97.4595 7.176 97.7715 7.29733 98.0315 7.54C98.2915 7.76533 98.4215 8.07733 98.4215 8.476C98.4215 8.85733 98.2915 9.178 98.0315 9.438C97.7888 9.68067 97.4855 9.802 97.1215 9.802ZM106.779 26.312C105.739 26.312 104.82 26.1387 104.023 25.792C103.243 25.4453 102.61 24.9513 102.125 24.31C101.657 23.6513 101.371 22.8713 101.267 21.97H103.139C103.243 22.4727 103.442 22.932 103.737 23.348C104.049 23.764 104.465 24.102 104.985 24.362C105.505 24.6047 106.12 24.726 106.831 24.726C107.49 24.726 108.027 24.6307 108.443 24.44C108.876 24.232 109.197 23.9633 109.405 23.634C109.63 23.2873 109.743 22.906 109.743 22.49C109.743 21.918 109.604 21.476 109.327 21.164C109.067 20.8347 108.686 20.592 108.183 20.436C107.68 20.28 107.074 20.1327 106.363 19.994C105.774 19.89 105.21 19.7513 104.673 19.578C104.136 19.4047 103.65 19.1793 103.217 18.902C102.801 18.6247 102.472 18.278 102.229 17.862C101.986 17.4287 101.865 16.926 101.865 16.354C101.865 15.6087 102.047 14.9587 102.411 14.404C102.792 13.832 103.33 13.39 104.023 13.078C104.716 12.7487 105.531 12.584 106.467 12.584C107.802 12.584 108.894 12.922 109.743 13.598C110.592 14.2567 111.086 15.2273 111.225 16.51H109.405C109.336 15.7993 109.041 15.236 108.521 14.82C108.001 14.404 107.299 14.196 106.415 14.196C105.548 14.196 104.881 14.378 104.413 14.742C103.962 15.0887 103.737 15.5653 103.737 16.172C103.737 16.5533 103.858 16.8827 104.101 17.16C104.344 17.4373 104.699 17.68 105.167 17.888C105.652 18.0787 106.242 18.2433 106.935 18.382C107.767 18.538 108.53 18.746 109.223 19.006C109.934 19.2487 110.506 19.63 110.939 20.15C111.39 20.6527 111.615 21.372 111.615 22.308C111.632 23.088 111.442 23.7813 111.043 24.388C110.644 24.9947 110.081 25.4713 109.353 25.818C108.625 26.1473 107.767 26.312 106.779 26.312ZM114.842 26V7.28H116.662V15.236C117.113 14.404 117.737 13.754 118.534 13.286C119.331 12.818 120.207 12.584 121.16 12.584C122.148 12.584 123.006 12.7833 123.734 13.182C124.479 13.5807 125.051 14.1873 125.45 15.002C125.866 15.8167 126.074 16.8567 126.074 18.122V26H124.28V18.33C124.28 16.926 123.985 15.886 123.396 15.21C122.824 14.5167 121.975 14.17 120.848 14.17C120.068 14.17 119.357 14.3607 118.716 14.742C118.092 15.1233 117.589 15.678 117.208 16.406C116.844 17.1167 116.662 18.0007 116.662 19.058V26H114.842Z" fill="#343434"/>
<path d="M161.434 11.6519L150.5 22.3091L139.566 11.6519C139.371 11.4617 139.109 11.3552 138.836 11.3552C138.564 11.3552 138.302 11.4617 138.106 11.6519C138.011 11.7442 137.936 11.8548 137.884 11.9769C137.833 12.099 137.806 12.2302 137.806 12.3628C137.806 12.4954 137.833 12.6266 137.884 12.7487C137.936 12.8708 138.011 12.9814 138.106 13.0737L149.738 24.4111C149.942 24.6095 150.215 24.7205 150.5 24.7205C150.785 24.7205 151.058 24.6095 151.262 24.4111L162.894 13.0737C162.989 12.9813 163.065 12.8706 163.117 12.7481C163.169 12.6257 163.196 12.4941 163.196 12.3611C163.196 12.2281 163.169 12.0965 163.117 11.974C163.065 11.8516 162.989 11.7409 162.894 11.6484C162.698 11.4582 162.436 11.3518 162.164 11.3518C161.891 11.3518 161.629 11.4582 161.434 11.6484V11.6519Z" fill="#343434"/>
</svg>
