<svg width="150" height="150" viewBox="0 0 150 150" fill="none" xmlns="http://www.w3.org/2000/svg">
<path d="M109.172 17.4791C109.061 15.2091 109.239 12.7555 109.138 10.5194C108.967 6.79668 110.818 6.69651 113.919 5.27481C115.836 4.38013 117.759 3.49597 119.688 2.62236C121.358 1.86879 122.977 1.05321 124.672 0.323445C126.818 -0.600354 129.242 0.666189 129.454 2.83056C129.551 3.8211 129.513 4.84928 129.51 5.8484L129.501 10.4462L129.509 55.9145C129.512 57.4069 129.552 59.0697 129.472 60.5496C130.165 60.3658 131.456 59.7347 132.14 59.4204C133.543 58.7637 134.955 58.1216 136.375 57.4944C136.423 54.0094 136.332 50.5169 136.389 47.0318C136.398 45.7783 137.005 44.6449 138.291 44.0943C139.466 43.5912 141 43.7804 142.272 43.7606C143.63 43.7707 145.033 43.7106 146.386 43.7723C148.511 43.8484 149.885 45.0363 149.919 47.0002C149.975 51.1273 149.988 55.2909 149.919 59.4161C149.889 61.3014 148.28 62.4121 146.339 62.4356C144.533 62.4575 142.568 62.3465 140.796 62.4769C140.209 62.52 138.136 63.5566 137.476 63.8605L132.41 66.1904C131.534 66.5906 130.412 67.1383 129.522 67.4716C129.408 69.3536 129.503 72.1125 129.503 74.0714L129.489 87.5645C133.286 87.6396 136.461 88.7339 139.177 91.2352C140.865 92.7915 142.067 94.735 142.659 96.8619C143.281 99.1433 143.082 103.832 143.08 106.388L143.084 118.755C143.937 118.767 144.877 118.784 145.725 118.759C150.721 118.609 149.96 122.475 149.957 125.76L149.956 132.987C149.954 134.3 150.015 135.641 148.869 136.611C147.555 137.724 144.955 137.433 143.243 137.432L136.31 137.416C136.323 137.911 136.313 138.436 136.306 138.936C136.264 141.697 136.416 144.481 136.242 147.236C136.213 147.695 136.018 148.09 135.803 148.496C134.886 149.706 133.925 149.973 132.393 149.98C127.889 150.001 123.384 149.994 118.88 149.992L114.577 149.99C112.925 149.988 111.119 150.186 109.937 148.897C108.861 147.723 109.134 145.437 109.137 143.972L109.155 137.448C106.599 137.379 103.718 137.44 101.139 137.441L40.8287 137.429C40.939 140.095 40.7689 142.826 40.853 145.507C40.9323 148.04 40.3415 149.956 37.0461 149.977C32.6506 150.005 28.2429 149.989 23.8456 149.988H19.3745C18.7223 149.988 18.0684 149.988 17.417 149.974C13.0763 149.886 13.6763 146.478 13.682 143.655C13.6935 141.575 13.6908 139.496 13.6739 137.416L6.65986 137.442C5.41913 137.445 3.96419 137.502 2.74087 137.343C2.0958 137.259 1.58619 137.005 1.10825 136.605C0.102318 135.764 0.024377 134.682 0.0235668 133.495C0.0219464 130.958 0.00112406 128.427 0.0164367 125.885C0.0998866 124.387 -0.150625 122.597 0.163892 121.139C0.563398 119.285 2.62194 118.652 4.4388 118.744C5.23457 118.784 6.10715 118.75 6.88931 118.756L6.88315 106.013C6.88307 103.639 6.72216 99.1886 7.24668 97.1033C7.80021 94.9541 8.97191 92.981 10.6397 91.389C13.3374 88.8163 16.626 87.6351 20.4708 87.5631C20.576 80.9498 20.4624 74.1486 20.4812 67.5113L13.1655 64.1472C12.3098 63.7542 10.2814 62.7137 9.42303 62.5353C6.51686 61.9316 0.237539 63.9225 0.0524093 59.4146C-0.020022 55.5682 0.0264835 51.6648 0.0236478 47.8237C-0.0908325 43.2767 3.2901 43.7318 6.85317 43.7522C10.1729 43.7713 13.6068 43.2054 13.6167 47.5239C13.6187 48.403 13.6185 49.3738 13.617 50.2398C13.5985 52.6566 13.6024 55.0735 13.6287 57.4903C15.8624 58.4334 18.2617 59.5872 20.4886 60.593C20.3935 56.5644 20.4716 52.2593 20.4727 48.2085L20.4744 10.8514C20.472 8.32033 20.4518 5.78841 20.4971 3.25824C20.5275 1.56014 21.6075 0.287597 23.4805 0.0142723C24.3026 -0.0481947 24.8361 0.0951281 25.5604 0.429775C30.0437 2.50152 34.5611 4.52158 39.0279 6.62226C40.5012 7.31512 40.8649 8.45598 40.8544 9.86176C40.8483 10.6737 40.8556 11.498 40.8537 12.3118L40.8284 17.4766C42.1503 16.4155 45.2721 13.1693 46.5214 12.7328C47.3906 12.429 54.3059 12.5484 55.458 12.5486H93.0763C95.8067 12.5487 100.771 12.4358 103.349 12.7101C104.275 12.8086 107.95 16.5454 109.172 17.4791ZM27.2762 38.7786L27.2687 85.7021C27.2694 87.4033 27.4304 89.2427 27.2057 90.9254C27.1111 91.6349 26.8069 92.3139 26.2404 92.8161C23.7158 95.0566 18.6877 91.9758 15.137 96.032C14.1118 97.2036 13.6736 98.5482 13.6134 100.033C13.5496 101.61 13.6202 103.202 13.6191 104.781C13.6159 109.444 13.7049 114.122 13.6146 118.783C17.7976 118.684 22.2091 118.748 26.4099 118.748L47.8034 118.76L47.8054 87.6188C47.7985 85.0647 47.1396 81.5233 51.0634 81.299C53.0118 81.1875 55.0689 81.2544 57.0252 81.2566L88.0499 81.2544C91.43 81.2529 94.8215 81.244 98.2024 81.2603C99.0288 81.2648 99.6211 81.3421 100.385 81.6206C101.153 82.0619 101.936 82.6845 102.065 83.547C102.27 84.8946 102.193 86.3975 102.19 87.7599L102.18 94.7379L102.188 110.866C102.188 113.426 102.245 116.202 102.178 118.746C110.218 118.855 118.384 118.667 126.433 118.748C129.671 118.781 133.151 118.67 136.364 118.783L136.383 105.408C136.384 104.049 136.479 99.8513 136.251 98.786C135.987 97.5743 135.351 96.457 134.416 95.5677C133.506 94.7186 132.385 94.1889 131.168 93.9103C128.299 93.2544 123.144 94.9415 122.784 90.7946C122.633 89.0682 122.733 86.9836 122.735 85.2274L122.733 38.7301L108.02 25.2447C105.727 23.1347 103.111 20.8736 100.912 18.7238C95.7872 18.6498 90.5534 18.6642 85.4281 18.707C73.3481 18.808 61.2057 18.5675 49.1322 18.7151L34.3976 32.2198C32.1835 34.2546 29.3551 36.7059 27.2762 38.7786ZM6.80318 124.979C6.81096 126.869 6.9026 129.437 6.78244 131.262L7.76132 131.265H128.002C133.044 131.265 138.183 131.311 143.219 131.262C143.085 129.506 143.177 126.778 143.185 124.967L142.339 124.982L12.0887 124.994C10.419 124.994 8.43054 125.044 6.80318 124.979ZM54.5216 106.338C57.6036 106.272 60.8012 106.31 63.8908 106.31L90.2212 106.309C91.6925 106.309 94.0307 106.242 95.451 106.328C95.4793 104.191 95.4818 102.055 95.4591 99.9189L69.6663 99.9426L60.3381 99.9226C58.5446 99.9226 56.2771 99.9798 54.5202 99.8921C54.4973 102.041 54.4978 104.19 54.5216 106.338ZM27.2052 29.9246C28.0035 29.426 29.8855 27.5825 30.6242 26.9023C31.7566 25.8647 32.9685 24.7133 34.1176 23.7044C34.136 19.5603 34.1721 15.3321 34.1219 11.1924C32.3983 10.5999 29.1155 8.94525 27.2594 8.14419L27.2621 22.6881C27.263 24.5076 27.3797 28.2136 27.2052 29.9246ZM129.603 137.452L120.518 137.442C119.099 137.442 117.271 137.483 115.872 137.413L115.868 143.828C117.169 143.802 129.367 143.87 129.589 143.735C129.593 141.698 129.546 139.475 129.603 137.452ZM34.1125 143.824C34.1309 141.689 34.1325 139.554 34.117 137.418C29.711 137.443 24.7276 137.529 20.3567 137.428C20.4339 138.194 20.4017 139.269 20.4013 140.069C20.4008 141.302 20.4184 142.581 20.3842 143.809C24.9273 143.816 29.5846 143.756 34.1125 143.824ZM95.4818 93.79C95.4802 91.7069 95.5037 89.5466 95.4583 87.4695L67.7151 87.488L59.0415 87.4843C57.8938 87.4836 55.5548 87.5415 54.5187 87.4204C54.499 89.3787 54.588 91.8919 54.4727 93.7781L90.3816 93.7655C91.9064 93.7647 93.9886 93.7105 95.4818 93.79ZM122.773 29.9605C122.665 28.0467 122.734 25.6324 122.736 23.6865L122.738 12.7675C122.738 12.2097 122.802 8.52745 122.682 8.2476L122.541 8.23416C121.061 8.833 119.634 9.55643 118.182 10.2041C117.564 10.4796 116.524 10.9994 115.891 11.1863C115.749 14.7573 115.917 18.4006 115.861 21.9788C115.852 22.5476 115.856 23.1602 115.878 23.7276L119.315 26.8883C120.403 27.8878 121.618 29.0495 122.773 29.9605ZM54.4936 112.447C54.5557 114.461 54.5331 116.761 54.5154 118.788C59.584 118.655 65.1326 118.75 70.2349 118.75L95.4478 118.763C95.4826 116.696 95.4145 114.499 95.4923 112.466H58.9711C57.7394 112.466 55.6337 112.532 54.4936 112.447Z" fill="#FCFCFC"/>
<path d="M37.4176 37.5336C38.1189 37.4675 39.8729 37.5089 40.6365 37.5109L46.5657 37.52L107.079 37.5188C108.839 37.5212 110.597 37.513 112.358 37.5367C114.26 37.5624 115.701 38.6712 115.836 40.4454C115.915 41.4733 115.858 42.5348 115.856 43.5675L115.852 49.8373L115.862 60.1677C115.865 61.9489 115.898 63.737 115.835 65.5166C115.766 67.472 114.691 68.3522 112.68 68.7019C107.68 68.8109 102.254 68.7184 97.2253 68.7196L41.1836 68.7216C39.9536 68.7239 38.7479 68.7219 37.5128 68.6982C35.9385 68.6679 34.3418 67.6115 34.1938 66.1075C34.0489 64.6351 34.1253 63.0402 34.1278 61.5422L34.1288 44.6754C34.1273 43.278 34.0707 41.8188 34.1601 40.4293C34.2722 38.6872 35.62 37.6835 37.4176 37.5336ZM78.3551 62.5009L105.378 62.5018C106.336 62.5021 107.916 62.4586 108.827 62.5232L109.116 62.4477C109.257 61.9395 109.144 58.255 109.143 57.5151L109.155 43.7002C106.529 43.617 103.512 43.6779 100.858 43.6786L85.5318 43.6836C83.2965 43.6844 80.5799 43.7559 78.3916 43.676L78.3891 56.0722C78.3899 58.0611 78.4637 60.5433 78.3551 62.5009ZM40.8352 62.4868L71.6038 62.4934L71.5958 50.4759C71.5958 48.2714 71.5492 45.9 71.614 43.7064C68.9227 43.6326 65.9982 43.6807 63.2833 43.6805L48.407 43.6808C46.1111 43.6809 43.0875 43.7592 40.832 43.6725L40.8352 62.4868Z" fill="#FCFCFC"/>
<path d="M23.941 100.007C27.6248 99.8379 31.7259 100.118 35.2938 99.9902C40.6453 99.7986 41.064 101.432 40.8492 105.866C40.7154 108.628 41.7815 111.974 37.5491 112.457L28.459 112.469C22.6729 112.472 19.9914 113.208 20.4694 106.635C20.6711 103.861 19.485 100.443 23.941 100.007Z" fill="#FCFCFC"/>
<path d="M112.544 100.01C116.984 99.832 121.734 100.034 126.198 100.043C128.613 100.048 129.764 102.168 129.515 104.178C129.141 107.184 130.958 111.852 126.24 112.457L116.984 112.469C111.364 112.474 108.593 113.197 109.147 106.632C109.375 103.925 108.048 100.457 112.544 100.01Z" fill="#FCFCFC"/>
</svg>
