<svg width="80" height="63" viewBox="0 0 80 63" fill="none" xmlns="http://www.w3.org/2000/svg">
<path d="M27.9149 63H7.82801C5.03028 59.2659 2.88276 55.0277 1.55086 50.4485L38.0399 42.6231L27.9149 63Z" fill="#FCFCFC"/>
<path d="M79.5721 33.7164C79.8539 35.609 80 37.5452 80 39.5151C80 48.3105 77.0911 56.4346 72.172 63H36.0851L52.766 44.8399H48.9645L53.2989 39.3508L79.5721 33.7164Z" fill="#FCFCFC"/>
<path d="M40 0C42.1483 0 44.257 0.167309 46.3136 0.489451L16.7376 38.4502H33.4285L0.458998 45.5207C0.156734 43.5624 0 41.5568 0 39.5151C0 17.6915 17.9086 0 40 0Z" fill="#FCFCFC"/>
<path d="M52.6075 2.00291C65.1332 6.10917 74.9111 16.1668 78.5069 28.7829L58.2059 33.1365L61.844 28.5294H40.3972L52.6075 2.00291Z" fill="#FCFCFC"/>
<path d="M16.7376 38.4502V42.029L30.922 42.1495L30.0709 44.3354L37.9574 42.6539L40.2837 38.4502H16.7376Z" fill="#FCFCFC"/>
<path d="M61.844 28.5294L53.3333 39.347L58.383 38.282L63.0922 32.1166L61.844 28.5294Z" fill="#FCFCFC"/>
</svg>
