<svg width="80" height="64" viewBox="0 0 80 64" fill="none" xmlns="http://www.w3.org/2000/svg">
<path d="M27.9149 64H7.82801C5.03028 60.2067 2.88276 55.9011 1.55086 51.2492L38.0399 43.2997L27.9149 64Z" fill="#3C80CF"/>
<path d="M79.5721 34.2516C79.8539 36.1742 80 38.1412 80 40.1424C80 49.0773 77.0911 57.3304 72.172 64H36.0851L52.766 45.5516H48.9645L53.2989 39.9754L79.5721 34.2516Z" fill="#3C80CF"/>
<path d="M40 0C42.1483 0 44.257 0.169964 46.3136 0.49722L16.7376 39.0605H33.4285L0.458998 46.2432C0.156734 44.2539 0 42.2165 0 40.1424C0 17.9723 17.9086 0 40 0Z" fill="#3C80CF"/>
<path d="M52.6075 2.0347C65.1332 6.20614 74.9111 16.4234 78.5069 29.2398L58.2059 33.6625L61.844 28.9822H40.3972L52.6075 2.0347Z" fill="#3C80CF"/>
<path d="M16.7376 39.0605V42.6961L30.922 42.8185L30.0709 45.0391L37.9574 43.331L40.2837 39.0605H16.7376Z" fill="#3C80CF"/>
<path d="M61.844 28.9822L53.3333 39.9715L58.383 38.8897L63.0922 32.6263L61.844 28.9822Z" fill="#3C80CF"/>
</svg>
