<svg width="150" height="100" viewBox="0 0 150 100" fill="none" xmlns="http://www.w3.org/2000/svg">
<path fill-rule="evenodd" clip-rule="evenodd" d="M137.967 68.533L148.55 85.8343V86.5062H144.126L141.775 82.1389L129.569 82.0829L127.161 86.5062H122.85V85.8903L133.32 68.533H137.967ZM135.336 71.8925L130.913 79.7312H140.431L135.905 71.8925H135.336Z" fill="#343434"/>
<path d="M113.107 68.533L115.011 68.589C118.289 68.589 120.946 71.2462 120.946 74.5241C120.946 77.5362 118.702 80.024 115.795 80.4076V80.7391L121.226 86.1702V86.5062H116.803L111.652 81.075H105.213V86.4502H100.509V68.533L113.107 68.533Z" fill="#343434"/>
<path d="M104.933 71.2766H113.107C115.148 71.2766 116.803 72.9311 116.803 74.972C116.803 77.0129 115.148 78.6674 113.107 78.6674H104.933V71.2766Z" fill="#F5F5F5"/>
<path fill-rule="evenodd" clip-rule="evenodd" d="M86.8477 68.533L97.43 85.8343V86.5062H93.0067L90.6551 82.1389L78.449 82.0829L76.0414 86.5062H71.7301V85.8903L82.2004 68.533H86.8477ZM84.2161 71.8925L79.7928 79.7312H89.3113L84.7856 71.8925H84.2161Z" fill="#343434"/>
<path d="M29.1769 86.5062V68.533H47.094V71.5006H33.8801V76.0358H45.4143V78.6674H33.8801V83.4826H47.486V86.5062H29.1769Z" fill="#343434"/>
<path d="M54.2609 86.4502H49.2217L58.0683 77.3236V77.0437L49.8936 68.533H54.8208L60.4199 74.972H61.0918L66.9149 68.533H71.6181V68.869L63.4434 77.0437V77.3236L71.6741 85.8903V86.4502H67.2508L61.0918 79.7312H60.4199L54.2609 86.4502Z" fill="#343434"/>
<path d="M5.66066 86.5062H1.23737V68.533H4.93277L17.9227 80.6831H18.2586V68.533H22.6259V86.5062H18.9305L5.9966 74.3001H5.66066V86.5062Z" fill="#343434"/>
<path d="M0.999939 99.9018V92.2593H7.33182V92.9668H2.11286V99.1944H7.40094V99.9018H0.999939ZM1.70502 96.3336V95.6261H6.65439V96.3336H1.70502ZM10.4426 99.9018V92.2593H11.597L17.4795 98.9413H17.203V92.2593H18.2606V99.9018H17.1062L11.2306 93.2198H11.5071V99.9018H10.4426ZM21.9779 99.9018V92.2593H28.3097V92.9668H23.0907V99.1944H28.3788V99.9018H21.9779ZM22.6829 96.3336V95.6261H27.6323V96.3336H22.6829ZM31.4205 99.9018V92.3832C31.6831 92.3454 31.955 92.3109 32.2362 92.28C32.5219 92.249 32.8237 92.2249 33.1417 92.2077C33.4597 92.187 33.796 92.1767 34.151 92.1767C35.4966 92.1767 36.4989 92.3609 37.1579 92.7292C37.8169 93.0941 38.1463 93.6656 38.1463 94.4436C38.1463 94.9531 37.985 95.3783 37.6625 95.7191C37.3445 96.0599 36.8744 96.3164 36.2524 96.4885C35.6302 96.6606 34.8606 96.7467 33.9435 96.7467C33.6624 96.7467 33.4135 96.7433 33.197 96.7364C32.9804 96.726 32.7569 96.714 32.5265 96.7002V99.9018H31.4205ZM37.6555 99.9018L34.0473 96.3078H35.2984L38.9344 99.9018H37.6555ZM33.9505 96.0754C35.0472 96.0754 35.8422 95.9429 36.3352 95.6778C36.8284 95.4127 37.0749 95.0048 37.0749 94.454C37.0749 94.0718 36.9759 93.7637 36.7776 93.5296C36.5795 93.2921 36.2685 93.1199 35.8444 93.0132C35.4251 92.9031 34.8813 92.848 34.2131 92.848C33.8675 92.848 33.5656 92.8583 33.3076 92.879C33.0495 92.8962 32.7891 92.922 32.5265 92.9564V96.0238C32.7062 96.0375 32.8675 96.0479 33.0103 96.0547C33.1532 96.0616 33.2984 96.0668 33.4458 96.0702C33.5933 96.0737 33.7615 96.0754 33.9505 96.0754ZM46.2008 99.9689C45.0487 99.9689 44.0832 99.833 43.3044 99.561C42.5256 99.289 41.938 98.8691 41.5417 98.301C41.1454 97.7296 40.9473 96.9946 40.9473 96.0961C40.9473 95.17 41.1524 94.4178 41.5625 93.8395C41.9725 93.2611 42.5533 92.8377 43.3044 92.5691C44.0556 92.2972 44.9427 92.1612 45.9658 92.1612C46.3528 92.1612 46.7353 92.1801 47.1132 92.218C47.4957 92.2559 47.8759 92.3127 48.2538 92.3884V93.1165C47.839 93.0304 47.4519 92.9719 47.0925 92.9409C46.733 92.9065 46.3782 92.8893 46.0279 92.8893C45.2169 92.8893 44.5187 92.9926 43.9335 93.1991C43.3528 93.4057 42.9058 93.7431 42.5924 94.2112C42.2791 94.6794 42.1224 95.3077 42.1224 96.0961C42.1224 96.8431 42.2722 97.449 42.5716 97.9137C42.8713 98.375 43.3183 98.7124 43.9128 98.9259C44.5072 99.1393 45.2468 99.246 46.1316 99.246C46.4634 99.246 46.7722 99.2357 47.0579 99.215C47.3482 99.1944 47.6178 99.1668 47.8667 99.1324L47.4243 99.4784V96.1838H48.4888V99.8192C48.0556 99.8708 47.6594 99.9087 47.2998 99.9328C46.9404 99.9569 46.5741 99.9689 46.2008 99.9689ZM54.2758 99.9018V96.1529L54.5247 96.788L50.5569 92.2593H51.7942L55.05 95.9825H54.6698L57.8842 92.2593H59.0454L55.1537 96.788L55.4025 96.1632V99.9018H54.2758ZM68.2326 99.9999C67.8271 99.9999 67.4031 99.9741 66.9607 99.9225C66.5229 99.8708 66.1058 99.7934 65.7096 99.6901V98.9672C65.9953 99.0395 66.2832 99.0997 66.5737 99.1479C66.8686 99.1926 67.1565 99.2271 67.4376 99.2512C67.7188 99.2753 67.9884 99.2873 68.2464 99.2873C69.0944 99.2873 69.7212 99.1686 70.1266 98.931C70.5322 98.69 70.735 98.3406 70.735 97.8828C70.735 97.4937 70.5806 97.1977 70.2719 96.9946C69.9677 96.788 69.447 96.6124 68.7095 96.4679L68.1566 96.3594C67.2857 96.1942 66.6335 95.9446 66.2003 95.6107C65.7671 95.2733 65.5505 94.8292 65.5505 94.2784C65.5505 93.6208 65.8547 93.1045 66.463 92.7292C67.0759 92.3505 67.9861 92.1612 69.1935 92.1612C69.5898 92.1612 69.9814 92.1818 70.3686 92.2232C70.7557 92.261 71.1082 92.3178 71.4262 92.3936V93.1165C71.0759 93.0339 70.7142 92.9736 70.341 92.9358C69.9723 92.8945 69.599 92.8738 69.2211 92.8738C68.6358 92.8738 68.1566 92.9272 67.7833 93.0339C67.41 93.1406 67.1336 93.2955 66.9538 93.4986C66.774 93.7017 66.6842 93.9462 66.6842 94.2319C66.6842 94.6071 66.8248 94.898 67.1059 95.1046C67.387 95.3111 67.8732 95.4833 68.5644 95.621L69.1243 95.7243C69.7511 95.8447 70.2672 95.9997 70.6727 96.189C71.0783 96.3749 71.3801 96.6038 71.5783 96.8758C71.7764 97.1443 71.8755 97.4628 71.8755 97.8311C71.8755 98.2924 71.7327 98.6849 71.447 99.0085C71.1613 99.3286 70.7464 99.5748 70.2026 99.7469C69.6589 99.9156 69.0022 99.9999 68.2326 99.9999ZM78.7432 99.9999C77.8906 99.9999 77.1463 99.8657 76.5104 99.5972C75.8745 99.3252 75.3791 98.9018 75.0241 98.3268C74.6693 97.7485 74.4919 96.9997 74.4919 96.0806C74.4919 95.1614 74.6693 94.4144 75.0241 93.8395C75.3791 93.2611 75.8745 92.8377 76.5104 92.5691C77.1509 92.2972 77.8952 92.1612 78.7432 92.1612C79.591 92.1612 80.333 92.2972 80.969 92.5691C81.6049 92.8377 82.1003 93.2611 82.4552 93.8395C82.81 94.4144 82.9874 95.1614 82.9874 96.0806C82.9874 96.9997 82.81 97.7485 82.4552 98.3268C82.1003 98.9018 81.6026 99.3252 80.9621 99.5972C80.3261 99.8657 79.5864 99.9999 78.7432 99.9999ZM78.7432 99.2822C79.3606 99.2822 79.8998 99.1806 80.3607 98.9775C80.8261 98.7709 81.1855 98.4353 81.439 97.9705C81.6971 97.5058 81.8261 96.8844 81.8261 96.1064C81.8261 95.3111 81.6971 94.6777 81.439 94.2061C81.1855 93.7344 80.8261 93.3954 80.3607 93.1888C79.8998 92.9822 79.3606 92.879 78.7432 92.879C78.121 92.879 77.5772 92.9805 77.1117 93.1836C76.651 93.3868 76.2914 93.7207 76.0334 94.1854C75.7799 94.6502 75.6533 95.2733 75.6533 96.0547C75.6533 96.8534 75.7799 97.4886 76.0334 97.9602C76.2914 98.4284 76.651 98.7658 77.1117 98.9723C77.5772 99.1789 78.121 99.2822 78.7432 99.2822ZM86.267 99.9018V92.2593H87.387V99.1737H92.4262V99.9018H86.267ZM98.5989 99.9999C97.7278 99.9999 97.0136 99.8932 96.4559 99.6798C95.8984 99.4663 95.4836 99.1393 95.2117 98.6986C94.9444 98.2546 94.8107 97.6917 94.8107 97.0101V92.2593H95.9306V97.103C95.9306 97.8569 96.1449 98.4077 96.5734 98.7554C97.0066 99.1031 97.6818 99.277 98.5989 99.277C99.5251 99.277 100.202 99.1031 100.631 98.7554C101.06 98.4077 101.274 97.8569 101.274 97.103V92.2593H102.366V97.0101C102.366 97.6917 102.233 98.2546 101.965 98.6986C101.703 99.1393 101.292 99.4663 100.735 99.6798C100.182 99.8932 99.4698 99.9999 98.5989 99.9999ZM108.366 99.9018V92.9874H104.958V92.2593H112.894V92.9874H109.486V99.9018H108.366ZM115.54 99.9018V92.2593H116.66V99.9018H115.54ZM124.201 99.9999C123.348 99.9999 122.604 99.8657 121.968 99.5972C121.332 99.3252 120.837 98.9018 120.482 98.3268C120.127 97.7485 119.95 96.9997 119.95 96.0806C119.95 95.1614 120.127 94.4144 120.482 93.8395C120.837 93.2611 121.332 92.8377 121.968 92.5691C122.609 92.2972 123.354 92.1612 124.201 92.1612C125.049 92.1612 125.791 92.2972 126.427 92.5691C127.063 92.8377 127.558 93.2611 127.913 93.8395C128.268 94.4144 128.445 95.1614 128.445 96.0806C128.445 96.9997 128.268 97.7485 127.913 98.3268C127.558 98.9018 127.061 99.3252 126.42 99.5972C125.784 99.8657 125.045 99.9999 124.201 99.9999ZM124.201 99.2822C124.819 99.2822 125.357 99.1806 125.819 98.9775C126.284 98.7709 126.643 98.4353 126.897 97.9705C127.155 97.5058 127.284 96.8844 127.284 96.1064C127.284 95.3111 127.155 94.6777 126.897 94.2061C126.643 93.7344 126.284 93.3954 125.819 93.1888C125.357 92.9822 124.819 92.879 124.201 92.879C123.579 92.879 123.036 92.9805 122.57 93.1836C122.109 93.3868 121.75 93.7207 121.491 94.1854C121.238 94.6502 121.111 95.2733 121.111 96.0547C121.111 96.8534 121.238 97.4886 121.491 97.9602C121.75 98.4284 122.109 98.7658 122.57 98.9723C123.036 99.1789 123.579 99.2822 124.201 99.2822ZM131.725 99.9018V92.2593H132.879L138.762 98.9413H138.485V92.2593H139.544V99.9018H138.389L132.513 93.2198H132.79V99.9018H131.725ZM145.286 99.9999C144.88 99.9999 144.456 99.9741 144.014 99.9225C143.576 99.8708 143.159 99.7934 142.763 99.6901V98.9672C143.048 99.0395 143.336 99.0997 143.627 99.1479C143.922 99.1926 144.21 99.2271 144.491 99.2512C144.772 99.2753 145.042 99.2873 145.299 99.2873C146.147 99.2873 146.774 99.1686 147.18 98.931C147.585 98.69 147.788 98.3406 147.788 97.8828C147.788 97.4937 147.634 97.1977 147.324 96.9946C147.021 96.788 146.5 96.6124 145.763 96.4679L145.21 96.3594C144.338 96.1942 143.687 95.9446 143.253 95.6107C142.821 95.2733 142.604 94.8292 142.604 94.2784C142.604 93.6208 142.908 93.1045 143.516 92.7292C144.129 92.3505 145.04 92.1612 146.247 92.1612C146.643 92.1612 147.034 92.1818 147.422 92.2232C147.809 92.261 148.161 92.3178 148.479 92.3936V93.1165C148.129 93.0339 147.767 92.9736 147.394 92.9358C147.025 92.8945 146.652 92.8738 146.274 92.8738C145.689 92.8738 145.21 92.9272 144.837 93.0339C144.463 93.1406 144.186 93.2955 144.007 93.4986C143.828 93.7017 143.737 93.9462 143.737 94.2319C143.737 94.6071 143.878 94.898 144.159 95.1046C144.44 95.3111 144.926 95.4833 145.617 95.621L146.177 95.7243C146.805 95.8447 147.32 95.9997 147.725 96.189C148.132 96.3749 148.433 96.6038 148.631 96.8758C148.83 97.1443 148.928 97.4628 148.928 97.8311C148.928 98.2924 148.786 98.6849 148.5 99.0085C148.215 99.3286 147.799 99.5748 147.256 99.7469C146.712 99.9156 146.055 99.9999 145.286 99.9999Z" fill="#343434"/>
<path d="M97.5285 62.9339H77.706C74.945 59.2038 72.8258 54.9699 71.5114 50.3955L107.52 42.5785L97.5285 62.9339Z" fill="#2E2E2E"/>
<path d="M148.506 33.681C148.784 35.5716 148.928 37.5058 148.928 39.4737C148.928 48.2598 146.058 56.3754 141.203 62.9339H105.591L122.053 44.7928H118.301L122.579 39.3095L148.506 33.681Z" fill="#2E2E2E"/>
<path d="M109.455 0C111.575 0 113.656 0.167133 115.685 0.488937L86.4983 38.4099H102.97L70.4339 45.4729C70.1356 43.5167 69.981 41.5133 69.981 39.4737C69.981 17.673 87.6539 0 109.455 0Z" fill="#2E2E2E"/>
<path d="M121.896 2.0008C134.257 6.10277 143.906 16.1498 147.455 28.7527L127.421 33.1018L131.011 28.4994H109.847L121.896 2.0008Z" fill="#343434"/>
<path d="M86.4983 38.4099V41.9849L100.496 42.1053L99.6562 44.2889L107.439 42.6092L109.735 38.4099H86.4983Z" fill="#2E2E2E"/>
<path d="M131.011 28.4994L122.613 39.3057L127.596 38.2419L132.243 32.0829L131.011 28.4994Z" fill="#2E2E2E"/>
</svg>
