<svg width="1321" height="94" viewBox="0 0 1321 94" fill="none" xmlns="http://www.w3.org/2000/svg">
<path d="M0.000113362 92.5148V1.17265H56.5335V9.62797H9.93666V84.0595H57.1507V92.5148H0.000113362ZM6.29532 49.8679V41.4126H50.4852V49.8679H6.29532ZM84.3074 92.5148V1.17265H94.6143L147.136 81.0353H144.667V1.17265H154.11V92.5148H143.803L91.3432 12.6521H93.812V92.5148H84.3074ZM187.299 92.5148V1.17265H243.832V9.62797H197.235V84.0595H244.449V92.5148H187.299ZM193.594 49.8679V41.4126H237.784V49.8679H193.594ZM271.606 92.5148V2.65387C273.951 2.20127 276.379 1.78982 278.889 1.41951C281.44 1.04921 284.135 0.761193 286.974 0.555462C289.813 0.308595 292.816 0.185161 295.985 0.185161C307.999 0.185161 316.948 2.38642 322.832 6.78895C328.716 11.1503 331.657 17.9804 331.657 27.2792C331.657 33.3687 330.217 38.4501 327.337 42.5235C324.498 46.5969 320.301 49.6622 314.747 51.7194C309.192 53.7767 302.321 54.8053 294.133 54.8053C291.623 54.8053 289.401 54.7642 287.468 54.6819C285.534 54.5584 283.538 54.4144 281.481 54.2499V92.5148H271.606ZM327.275 92.5148L295.059 49.5593H306.23L338.693 92.5148H327.275ZM294.195 46.782C303.987 46.782 311.085 45.1979 315.487 42.0298C319.89 38.8616 322.091 33.9859 322.091 27.4027C322.091 22.8356 321.207 19.1531 319.437 16.3552C317.668 13.5162 314.891 11.4589 311.105 10.1834C307.361 8.86678 302.506 8.20846 296.54 8.20846C293.454 8.20846 290.759 8.3319 288.455 8.57877C286.151 8.78449 283.826 9.09308 281.481 9.50453V46.1648C283.086 46.3294 284.526 46.4529 285.801 46.5351C287.077 46.6174 288.373 46.6791 289.689 46.7203C291.006 46.7614 292.508 46.782 294.195 46.782ZM403.57 93.3171C393.284 93.3171 384.664 91.6919 377.71 88.4414C370.757 85.191 365.511 80.1713 361.972 73.3823C358.434 66.5522 356.665 57.7678 356.665 47.0289C356.665 35.9608 358.496 26.9706 362.158 20.0583C365.819 13.1459 371.004 8.08503 377.71 4.8757C384.417 1.62524 392.338 6.66566e-06 401.472 6.66566e-06C404.928 6.66566e-06 408.343 0.226306 411.717 0.678903C415.132 1.1315 418.526 1.81039 421.9 2.71559V11.4178C418.197 10.3891 414.741 9.68968 411.532 9.31938C408.322 8.90793 405.154 8.7022 402.027 8.7022C394.786 8.7022 388.552 9.93655 383.327 12.4053C378.142 14.874 374.151 18.9062 371.353 24.5019C368.556 30.0977 367.157 37.6067 367.157 47.0289C367.157 55.9574 368.494 63.1989 371.168 68.7535C373.843 74.267 377.834 78.2992 383.142 80.8502C388.449 83.4012 395.053 84.6767 402.953 84.6767C405.915 84.6767 408.672 84.5532 411.223 84.3064C413.815 84.0595 416.222 83.7303 418.444 83.3189L414.494 87.454V48.0781H423.999V91.5273C420.131 92.1445 416.593 92.5971 413.383 92.8851C410.174 93.1731 406.903 93.3171 403.57 93.3171ZM475.667 92.5148V47.7078L477.889 55.2991L442.463 1.17265H453.51L482.579 45.6711H479.185L507.884 1.17265H518.252L483.505 55.2991L485.727 47.8312V92.5148H475.667ZM600.279 93.6875C596.658 93.6875 592.873 93.3789 588.923 92.7617C585.014 92.1445 581.29 91.2187 577.752 89.9844V81.3439C580.303 82.208 582.874 82.928 585.467 83.504C588.1 84.0389 590.671 84.4504 593.181 84.7384C595.691 85.0264 598.098 85.1704 600.402 85.1704C607.973 85.1704 613.569 83.7509 617.189 80.9119C620.81 78.0317 622.621 73.8555 622.621 68.3832C622.621 63.7338 621.242 60.1953 618.486 57.7678C615.77 55.2991 611.121 53.2007 604.537 51.4726L599.6 50.1765C591.824 48.2015 586.001 45.2185 582.134 41.2274C578.266 37.1952 576.332 31.8875 576.332 25.3043C576.332 17.4455 579.048 11.2738 584.479 6.78895C589.951 2.26299 598.078 6.66566e-06 608.858 6.66566e-06C612.396 6.66566e-06 615.893 0.246877 619.35 0.740617C622.806 1.19321 625.953 1.87211 628.792 2.7773V11.4178C625.665 10.4303 622.435 9.71026 619.103 9.25766C615.811 8.76392 612.478 8.51705 609.104 8.51705C603.879 8.51705 599.6 9.1548 596.267 10.4303C592.934 11.7058 590.466 13.5573 588.861 15.9849C587.256 18.4124 586.454 21.3338 586.454 24.7488C586.454 29.2336 587.709 32.7104 590.219 35.1791C592.729 37.6478 597.07 39.7051 603.241 41.3509L608.24 42.5852C613.836 44.0253 618.444 45.8768 622.065 48.1398C625.686 50.3616 628.381 53.0978 630.15 56.3483C631.919 59.5576 632.804 63.3635 632.804 67.766C632.804 73.2795 631.529 77.97 628.978 81.8377C626.427 85.6642 622.723 88.606 617.868 90.6633C613.013 92.6794 607.15 93.6875 600.279 93.6875ZM694.121 93.6875C686.509 93.6875 679.864 92.0828 674.186 88.8735C668.508 85.623 664.085 80.5622 660.916 73.6909C657.748 66.7785 656.164 57.8295 656.164 46.8437C656.164 35.858 657.748 26.9295 660.916 20.0583C664.085 13.1459 668.508 8.08503 674.186 4.8757C679.905 1.62524 686.55 6.66566e-06 694.121 6.66566e-06C701.691 6.66566e-06 708.316 1.62524 713.994 4.8757C719.672 8.08503 724.095 13.1459 727.263 20.0583C730.431 26.9295 732.015 35.858 732.015 46.8437C732.015 57.8295 730.431 66.7785 727.263 73.6909C724.095 80.5622 719.651 85.623 713.932 88.8735C708.254 92.0828 701.65 93.6875 694.121 93.6875ZM694.121 85.1087C699.634 85.1087 704.448 83.8949 708.563 81.4674C712.718 78.9986 715.927 74.987 718.19 69.4324C720.495 63.8778 721.647 56.4511 721.647 47.1523C721.647 37.6478 720.495 30.0771 718.19 24.4402C715.927 18.8033 712.718 14.7505 708.563 12.2818C704.448 9.81312 699.634 8.57877 694.121 8.57877C688.566 8.57877 683.711 9.79255 679.555 12.2201C675.441 14.6477 672.231 18.6387 669.927 24.1933C667.664 29.7479 666.533 37.1952 666.533 46.5351C666.533 56.0808 667.664 63.6721 669.927 69.309C672.231 74.9047 675.441 78.9369 679.555 81.4056C683.711 83.8743 688.566 85.1087 694.121 85.1087ZM761.297 92.5148V1.17265H771.296V83.8126H816.288V92.5148H761.297ZM871.4 93.6875C863.623 93.6875 857.246 92.412 852.267 89.861C847.289 87.31 843.586 83.4012 841.158 78.1346C838.772 72.8269 837.578 66.0996 837.578 57.9529V1.17265H847.577V59.0638C847.577 68.0746 849.49 74.6578 853.316 78.8135C857.184 82.9691 863.212 85.047 871.4 85.047C879.67 85.047 885.718 82.9691 889.545 78.8135C893.371 74.6578 895.284 68.0746 895.284 59.0638V1.17265H905.036V57.9529C905.036 66.0996 903.843 72.8269 901.456 78.1346C899.111 83.4012 895.449 87.31 890.471 89.861C885.533 92.412 879.176 93.6875 871.4 93.6875ZM958.608 92.5148V9.87483H928.181V1.17265H999.033V9.87483H968.606V92.5148H958.608ZM1022.66 92.5148V1.17265H1032.66V92.5148H1022.66ZM1099.99 93.6875C1092.37 93.6875 1085.73 92.0828 1080.05 88.8735C1074.37 85.623 1069.95 80.5622 1066.78 73.6909C1063.61 66.7785 1062.03 57.8295 1062.03 46.8437C1062.03 35.858 1063.61 26.9295 1066.78 20.0583C1069.95 13.1459 1074.37 8.08503 1080.05 4.8757C1085.77 1.62524 1092.42 6.66566e-06 1099.99 6.66566e-06C1107.56 6.66566e-06 1114.18 1.62524 1119.86 4.8757C1125.54 8.08503 1129.96 13.1459 1133.13 20.0583C1136.3 26.9295 1137.88 35.858 1137.88 46.8437C1137.88 57.8295 1136.3 66.7785 1133.13 73.6909C1129.96 80.5622 1125.52 85.623 1119.8 88.8735C1114.12 92.0828 1107.52 93.6875 1099.99 93.6875ZM1099.99 85.1087C1105.5 85.1087 1110.31 83.8949 1114.43 81.4674C1118.58 78.9986 1121.79 74.987 1124.06 69.4324C1126.36 63.8778 1127.51 56.4511 1127.51 47.1523C1127.51 37.6478 1126.36 30.0771 1124.06 24.4402C1121.79 18.8033 1118.58 14.7505 1114.43 12.2818C1110.31 9.81312 1105.5 8.57877 1099.99 8.57877C1094.43 8.57877 1089.58 9.79255 1085.42 12.2201C1081.31 14.6477 1078.1 18.6387 1075.79 24.1933C1073.53 29.7479 1072.4 37.1952 1072.4 46.5351C1072.4 56.0808 1073.53 63.6721 1075.79 69.309C1078.1 74.9047 1081.31 78.9369 1085.42 81.4056C1089.58 83.8743 1094.43 85.1087 1099.99 85.1087ZM1167.16 92.5148V1.17265H1177.47L1229.99 81.0353H1227.52V1.17265H1236.97V92.5148H1226.66L1174.2 12.6521H1176.67V92.5148H1167.16ZM1288.24 93.6875C1284.62 93.6875 1280.83 93.3789 1276.88 92.7617C1272.97 92.1445 1269.25 91.2187 1265.71 89.9844V81.3439C1268.26 82.208 1270.83 82.928 1273.43 83.504C1276.06 84.0389 1278.63 84.4504 1281.14 84.7384C1283.65 85.0264 1286.06 85.1704 1288.36 85.1704C1295.93 85.1704 1301.53 83.7509 1305.15 80.9119C1308.77 78.0317 1310.58 73.8555 1310.58 68.3832C1310.58 63.7338 1309.2 60.1953 1306.44 57.7678C1303.73 55.2991 1299.08 53.2007 1292.5 51.4726L1287.56 50.1765C1279.78 48.2015 1273.96 45.2185 1270.09 41.2274C1266.23 37.1952 1264.29 31.8875 1264.29 25.3043C1264.29 17.4455 1267.01 11.2738 1272.44 6.78895C1277.91 2.26299 1286.04 6.66566e-06 1296.82 6.66566e-06C1300.36 6.66566e-06 1303.85 0.246877 1307.31 0.740617C1310.77 1.19321 1313.91 1.87211 1316.75 2.7773V11.4178C1313.62 10.4303 1310.39 9.71026 1307.06 9.25766C1303.77 8.76392 1300.44 8.51705 1297.06 8.51705C1291.84 8.51705 1287.56 9.1548 1284.23 10.4303C1280.89 11.7058 1278.42 13.5573 1276.82 15.9849C1275.22 18.4124 1274.41 21.3338 1274.41 24.7488C1274.41 29.2336 1275.67 32.7104 1278.18 35.1791C1280.69 37.6478 1285.03 39.7051 1291.2 41.3509L1296.2 42.5852C1301.8 44.0253 1306.4 45.8768 1310.02 48.1398C1313.65 50.3616 1316.34 53.0978 1318.11 56.3483C1319.88 59.5576 1320.76 63.3635 1320.76 67.766C1320.76 73.2795 1319.49 77.97 1316.94 81.8377C1314.39 85.6642 1310.68 88.606 1305.83 90.6633C1300.97 92.6794 1295.11 93.6875 1288.24 93.6875Z" fill="#9E9E9E"/>
</svg>
